<svg width="94" height="94" fill="none" xmlns="http://www.w3.org/2000/svg"><path d="M47 0a47 47 0 1023.832 87.508l13.816 3.76a5.386 5.386 0 006.62-6.62l-3.76-13.816A47 47 0 0047 0zm37.308 71.01l3.937 14.466a2.254 2.254 0 01-2.771 2.767l-14.465-3.938a1.555 1.555 0 00-1.227.176 43.867 43.867 0 1114.7-14.7 1.567 1.567 0 00-.174 1.23z" fill="#000"/><path d="M32.9 56.4a1.567 1.567 0 000-3.133h-6.983c.8-.638 1.658-1.2 2.562-1.68 2.668-1.541 5.988-3.457 5.988-7.72a6.267 6.267 0 10-12.534 0 1.567 1.567 0 003.134 0 3.133 3.133 0 016.266 0c0 2.289-1.67 3.418-4.42 5.013-2.335 1.341-4.98 2.867-4.98 5.953A1.567 1.567 0 0023.5 56.4h9.4zm29.767-17.233a1.567 1.567 0 001.566 1.566h5.299l-6.709 13.4a1.568 1.568 0 002.805 1.4l7.833-15.666a1.567 1.567 0 00-1.394-2.267h-7.834a1.567 1.567 0 00-1.566 1.567zM45.433 56.4A1.567 1.567 0 0047 54.833V51.7h1.567a1.567 1.567 0 000-3.133H47V47a1.567 1.567 0 00-3.133 0v1.567H40.3l4.925-8.617a1.566 1.566 0 10-2.72-1.554L36.24 49.362A1.567 1.567 0 0037.6 51.7h6.267v3.133a1.567 1.567 0 001.566 1.567zm11.014-19.18l-4.7 18.8a1.567 1.567 0 003.038.76l4.7-18.8a1.564 1.564 0 00-1.132-1.935 1.568 1.568 0 00-1.654.61c-.122.17-.206.362-.252.566z" fill="#000"/><path d="M74.086 28.285a1.567 1.567 0 00-.493 2.159 31.317 31.317 0 01-45.52 41.516l3.328-.207a1.57 1.57 0 10-.196-3.133l-7.193.448a1.567 1.567 0 00-1.465 1.662l.448 7.191a1.567 1.567 0 001.567 1.47h.099a1.567 1.567 0 001.466-1.662l-.217-3.502a34.445 34.445 0 0050.335-45.449 1.567 1.567 0 00-2.159-.493zM15.667 47a31.316 31.316 0 0150.26-24.952l-3.328.207a1.569 1.569 0 00.097 3.133h.1l7.192-.448a1.566 1.566 0 001.465-1.663l-.449-7.19a1.54 1.54 0 00-1.66-1.467 1.566 1.566 0 00-1.467 1.662l.218 3.502a34.444 34.444 0 00-50.34 45.438 1.567 1.567 0 001.329.735 1.567 1.567 0 001.324-2.4A31.126 31.126 0 0115.666 47z" fill="#000"/></svg>