<svg width="64" height="34" fill="none" xmlns="http://www.w3.org/2000/svg"><path d="M15.258 7.112a3716.546 3716.546 0 00-8.752 21.056c.564.837 1.27.697 1.835.697h7.2c.564 0 1.27 0 1.835.14.988.278 1.553 1.115 1.553 2.091 0 .976-.706 1.534-1.553 1.813H4.247c-3.106 0-3.953-1.255-2.823-4.044 3.67-8.506 7.2-17.152 10.87-25.797.423-.976.988-2.092 2.117-2.51 1.412-.558 2.965 0 3.67 1.673 1.695 4.044 3.389 7.949 4.942 11.992 1.835 4.463 3.811 9.064 5.646 13.527.283.697.565 1.394.847 2.23.283 1.256 0 2.232-1.129 2.79-.988.418-2.118 0-2.682-1.256-1.13-2.23-1.977-4.601-2.965-6.972-2.4-5.717-4.658-11.295-7.34-17.57l-.142.14zm48.704 9.482c0 8.367-5.93 15.2-14.117 16.454-1.13.14-2.259.28-3.388 0-.847-.279-1.694-.697-1.694-1.673 0-1.116.564-1.813 1.553-2.092.705-.279 1.411-.14 2.117-.279 6.07-.278 11.011-5.159 11.153-11.155.14-5.996-2.824-10.737-7.906-12.41-1.13-.419-2.259-.558-3.53-.558-.705 0-1.41 0-2.117-.28-.847-.418-1.412-1.115-1.27-2.091 0-.976.706-1.394 1.411-1.673.706-.28 1.412-.28 2.118-.28 6.917.28 12.423 5.02 14.682 10.738.706 1.813 1.129 3.626.988 5.299zm-26.54.139V3.486c0-1.952.706-2.928 1.976-2.928 1.13 0 1.977.836 2.259 2.65v25.239c0 1.115 0 2.23-.424 3.207-.282.837-.988 1.534-1.976 1.394-.988-.14-1.694-.697-1.835-1.812V16.733z" fill="#3B3A46"/></svg>