<svg width="94" height="94" fill="none" xmlns="http://www.w3.org/2000/svg"><path d="M33.355 6.065c-6.688 0-12.13 5.44-12.13 12.128h3.033c0-5.016 4.08-9.096 9.097-9.096V6.065z" fill="#000"/><path d="M81.871 51.548H60.645v-7.58h19.71C87.878 43.968 94 37.845 94 30.323c0-7.523-6.122-13.646-13.645-13.646h-1.593C77.987 7.355 70.165 0 60.645 0c-5.234 0-10.19 2.28-13.625 6.17C43.64 2.31 38.728 0 33.355 0c-9.557 0-17.4 7.413-18.123 16.786a12.796 12.796 0 00-6.01.686c-5.685 2.078-9.304 7.2-9.22 13.047.105 7.416 6.225 13.449 13.643 13.449h22.742v7.58H12.13V66.71H0V94h27.29V66.71H15.161V54.58H39.42V43.969h6.065V66.71h-12.13V94h27.291V66.71h-12.13V40.936h-34.87c-5.77 0-10.53-4.692-10.612-10.459-.064-4.54 2.773-8.528 7.229-10.158 1.628-.596 3.271-.73 4.983-.456a18.14 18.14 0 00.6 3.291l2.918-.824c-.38-1.34-.57-2.731-.57-4.136 0-8.36 6.8-15.162 15.16-15.162 6.294 0 11.84 3.788 14.128 9.649l2.825-1.103a18.563 18.563 0 00-1.435-2.879c2.873-3.553 7.19-5.667 11.773-5.667 7.849 0 14.321 5.995 15.084 13.645h-5.987v3.033h10.613c5.852 0 10.613 4.76 10.613 10.613 0 5.852-4.761 10.612-10.613 10.612H57.613v13.646h21.226V66.71h-12.13V94H94V66.71H81.871V51.548zM3.032 90.968V81.87h21.226v9.097H3.032zm21.226-12.13H3.032v-9.096h21.226v9.097zm12.13 12.13V81.87h21.225v9.097H36.387zm21.225-12.13H36.387v-9.096h21.226v9.097zm12.129 12.13V81.87h21.226v9.097H69.742zm21.226-12.13H69.742v-9.096h21.226v9.097z" fill="#000"/><path d="M39.42 25.774h3.032v3.032h-3.033v-3.032zm6.064 0h3.032v3.032h-3.032v-3.032zm6.064 0h3.033v3.032h-3.033v-3.032z" fill="#000"/><path d="M60.645 25.774h-3.032v6.065H27.29v3.032h33.355v-9.097zm-19.71 47h3.033v3.032h-3.033v-3.032zm9.097 0h3.033v3.032h-3.033v-3.032zm-9.097 12.129h3.033v3.032h-3.033v-3.032zm9.097 0h3.033v3.032h-3.033v-3.032zM7.58 72.774h3.033v3.032H7.58v-3.032zm9.097 0h3.033v3.032h-3.033v-3.032zM7.58 84.903h3.033v3.032H7.58v-3.032zm9.097 0h3.033v3.032h-3.033v-3.032zM74.29 72.774h3.033v3.032H74.29v-3.032zm9.097 0h3.032v3.032h-3.032v-3.032zM74.29 84.903h3.033v3.032H74.29v-3.032zm9.097 0h3.032v3.032h-3.032v-3.032z" fill="#000"/></svg>