<svg width="28" height="28" fill="none" xmlns="http://www.w3.org/2000/svg"><path d="M3.313 17.531h-2.25a.844.844 0 00-.844.844v7.875a.844.844 0 00.844.844h2.25a4.781 4.781 0 100-9.563zm0 7.875H1.906V19.22h1.407a3.094 3.094 0 010 6.187zm23.646-.768a.843.843 0 01.025 1.193 3.946 3.946 0 01-2.859 1.263c-2.326 0-4.219-2.145-4.219-4.782 0-2.636 1.893-4.78 4.22-4.78a3.947 3.947 0 012.858 1.265.844.844 0 01-1.218 1.167 2.285 2.285 0 00-1.64-.745c-1.397 0-2.532 1.388-2.532 3.093 0 1.706 1.135 3.094 2.531 3.094a2.28 2.28 0 001.641-.742.844.844 0 011.193-.026zM14 17.531c-2.326 0-4.219 2.145-4.219 4.781 0 2.637 1.893 4.782 4.22 4.782 2.325 0 4.218-2.145 4.218-4.782 0-2.636-1.893-4.78-4.219-4.78zm0 7.875c-1.396 0-2.531-1.388-2.531-3.094 0-1.705 1.135-3.093 2.531-3.093 1.396 0 2.531 1.388 2.531 3.093 0 1.706-1.134 3.094-2.53 3.094zM2.75 13.594a.844.844 0 00.844-.844V2.625a.281.281 0 01.281-.281h12.656v7.03a.844.844 0 00.844.845h7.031v2.53a.844.844 0 101.688 0V9.376a.844.844 0 00-.248-.596L17.971.904a.844.844 0 00-.596-.248h-13.5a1.969 1.969 0 00-1.969 1.969V12.75a.844.844 0 00.844.844zM18.22 3.536l4.995 4.995H18.22V3.536z" fill="#516C96"/></svg>