<svg width="94" height="94" fill="none" xmlns="http://www.w3.org/2000/svg"><path d="M1.377 16.156V9.44A8.063 8.063 0 019.44 1.377h3.628m0 0v69.062m0-69.062h47.944A3.624 3.624 0 0164.636 5v33.565M13.069 86.674H9.44a8.063 8.063 0 01-8.063-8.063V23.133m51.007 63.541h-31.93m34.073-16.138h7.1M12.545 81.681H9.87a3.637 3.637 0 01-3.637-3.636v-3.872a3.637 3.637 0 013.637-3.637h26.664m18.237 11.145H20.746m57.64 10.942h3.009a2.974 2.974 0 002.974-2.974v-.001a2.974 2.974 0 00-2.974-2.974H47.819a2.974 2.974 0 00-2.974 2.974v.001a2.974 2.974 0 002.974 2.974h23.23M61.608 44.98v-3.414a3 3 0 115.999 0v3.66m0 10.036v25.092h-6V55.262m-21.26-.386h48.521m-38.159 13.1l-5.207-13.1-5.208 13.1m48.626 0l-5.207-13.1-5.208 13.1M20.455 86.71l-7.387 5.912V76.23h7.386v10.482zm32.81-54.107H24.44V13.488h28.826v19.116zm23.566 54.079H52.383v-.002a6.238 6.238 0 016.237-6.237h11.972a6.238 6.238 0 016.237 6.237v.002zM74.663 54.7H54.55v-.002c0-5.459 4.425-9.884 9.883-9.884h.348c5.458 0 9.883 4.425 9.883 9.884v.002zM51.412 74.234H39.591a3 3 0 010-6.002h11.821a3 3 0 010 6.002zm38.212 0H77.802a3 3 0 010-6.002h11.822a3 3 0 010 6.002z" stroke="#060606" stroke-width="3" stroke-miterlimit="10" stroke-linecap="round" stroke-linejoin="round"/></svg>