<svg width="117" height="88" fill="none" xmlns="http://www.w3.org/2000/svg"><path d="M112.375 61.516a1.785 1.785 0 01-1.282-.54 1.85 1.85 0 01-.53-1.304v-9.219c0-.489.19-.958.53-1.304.34-.345.801-.54 1.282-.54s.942.195 1.282.54c.34.346.531.815.531 1.304v9.219a1.874 1.874 0 01-.531 1.304 1.807 1.807 0 01-1.282.54z" fill="#000"/><path d="M112.377 52.297a1.79 1.79 0 01-.954-.275 1.825 1.825 0 01-.669-.744l-1.813-3.688a1.864 1.864 0 01-.101-1.41 1.834 1.834 0 01.91-1.068 1.784 1.784 0 012.001.259c.18.159.327.353.433.57l1.812 3.688a1.871 1.871 0 01-.078 1.793 1.831 1.831 0 01-.659.641 1.79 1.79 0 01-.882.234z" fill="#000"/><path d="M110.561 48.61c-.309 0-.613-.081-.882-.234a1.823 1.823 0 01-.659-.642 1.872 1.872 0 01-.079-1.793l1.813-3.688a1.836 1.836 0 011.048-.927 1.783 1.783 0 011.386.099 1.851 1.851 0 01.909 1.068 1.883 1.883 0 01-.101 1.41l-1.812 3.687a1.84 1.84 0 01-.669.745c-.287.18-.617.275-.954.274z" fill="#000"/><path d="M112.377 44.922a1.796 1.796 0 01-1.428-.71 1.849 1.849 0 01-.345-.751 1.887 1.887 0 01.013-.83l1.813-7.374a1.84 1.84 0 01.826-1.13c.412-.25.904-.325 1.369-.207.466.118.866.42 1.113.837.248.418.322.919.207 1.393l-1.812 7.375a1.85 1.85 0 01-.642 1.006c-.318.253-.71.39-1.114.39z" fill="#000"/><path d="M114.189 37.547c-.337 0-.667-.095-.954-.275a1.84 1.84 0 01-.669-.744l-1.812-3.688a1.883 1.883 0 01.249-2.036 1.797 1.797 0 011.945-.541 1.807 1.807 0 011.048.928l1.813 3.688a1.872 1.872 0 01-.079 1.793 1.823 1.823 0 01-.659.641 1.785 1.785 0 01-.882.234z" fill="#000"/><path d="M112.375 33.86a1.79 1.79 0 01-1.007-.312 1.835 1.835 0 01-.667-.827 1.874 1.874 0 01.393-2.009l1.812-1.844a1.793 1.793 0 012.575-.012 1.848 1.848 0 01.53 1.312 1.84 1.84 0 01-.542 1.307l-1.813 1.844a1.801 1.801 0 01-1.281.54z" fill="#000"/><path d="M114.189 32.016a1.79 1.79 0 01-.954-.275 1.839 1.839 0 01-.669-.744l-1.812-3.688a1.884 1.884 0 01-.101-1.41c.075-.23.194-.443.35-.626a1.794 1.794 0 012.993.387l1.813 3.687a1.873 1.873 0 01-.079 1.793 1.823 1.823 0 01-.659.642 1.786 1.786 0 01-.882.234z" fill="#000"/><path d="M105.123 30.172c-.442 0-.868-.166-1.199-.464a1.868 1.868 0 01-.292-2.423c.25-.37.625-.636 1.054-.745l7.25-1.844a1.781 1.781 0 011.374.206c.205.124.383.289.525.483a1.862 1.862 0 01-.38 2.581c-.192.144-.41.248-.641.306l-7.25 1.844a1.771 1.771 0 01-.441.056z" fill="#000"/><path d="M99.688 35.703a1.79 1.79 0 01-1.007-.31 1.837 1.837 0 01-.668-.828 1.874 1.874 0 01.393-2.01l5.438-5.53a1.8 1.8 0 011.284-.552 1.804 1.804 0 011.29.54 1.867 1.867 0 01.388 2.02 1.842 1.842 0 01-.4.599l-5.437 5.53a1.804 1.804 0 01-1.281.541z" fill="#000"/><path d="M99.688 35.703a1.78 1.78 0 01-.583-.097l-5.349-1.844a1.823 1.823 0 01-1.043-.93 1.873 1.873 0 01-.091-1.409c.154-.463.483-.845.914-1.061.431-.217.93-.25 1.385-.093l5.349 1.844c.407.14.751.423.972.798a1.87 1.87 0 01-.381 2.354 1.796 1.796 0 01-1.174.438z" fill="#000"/><path d="M79.752 41.234a1.8 1.8 0 01-1.127-.397 1.848 1.848 0 01-.64-1.024c-.093-.405-.05-.83.124-1.206a1.83 1.83 0 01.834-.867l14.588-7.376c.43-.215.927-.248 1.381-.092.454.157.83.49 1.043.926.213.437.248.942.096 1.404a1.835 1.835 0 01-.905 1.065l-14.589 7.375c-.25.127-.526.192-.805.192zm-36.25 0c-.1 0-.2-.008-.3-.025l-10.874-1.844a1.808 1.808 0 01-1.177-.746 1.868 1.868 0 01.42-2.572 1.789 1.789 0 011.351-.319l10.876 1.844c.448.076.852.32 1.131.685a1.866 1.866 0 01-.2 2.489 1.795 1.795 0 01-1.227.488z" fill="#000"/><path d="M32.623 39.39c-.28 0-.557-.066-.809-.194l-3.625-1.844a1.815 1.815 0 01-.56-.44 1.854 1.854 0 01-.441-1.34 1.866 1.866 0 01.621-1.265 1.807 1.807 0 011.319-.445c.238.018.47.083.683.192l3.625 1.844c.365.185.658.491.831.868.173.376.216.801.122 1.205-.094.405-.32.765-.64 1.023-.32.257-.717.397-1.126.397z" fill="#000"/><path d="M29 37.547c-.287 0-.57-.07-.825-.203a1.822 1.822 0 01-.644-.564 1.863 1.863 0 01-.25-1.66l1.813-5.531c.075-.23.194-.444.35-.627a1.816 1.816 0 011.24-.633 1.783 1.783 0 011.318.447 1.842 1.842 0 01.62 1.265c.016.242-.015.485-.09.714l-1.813 5.531c-.12.367-.351.687-.66.913a1.79 1.79 0 01-1.059.348z" fill="#000"/><path d="M30.813 32.016a1.79 1.79 0 01-1.245-.503l-3.625-3.478a1.87 1.87 0 01-.08-2.613 1.813 1.813 0 011.27-.579 1.786 1.786 0 011.299.509l3.625 3.479c.264.253.447.581.526.942.078.36.049.736-.085 1.08a1.838 1.838 0 01-.667.845 1.79 1.79 0 01-1.018.318z" fill="#000"/><path d="M18.125 37.547c-.36 0-.712-.11-1.011-.314a1.838 1.838 0 01-.667-.834 1.874 1.874 0 01-.097-1.07c.074-.36.25-.688.508-.944l9.062-9.01a1.796 1.796 0 011.284-.513 1.8 1.8 0 011.267.554c.334.348.52.815.517 1.301a1.86 1.86 0 01-.533 1.294l-9.063 9.01a1.79 1.79 0 01-1.267.526z" fill="#000"/><path d="M10.877 41.234c-.409 0-.805-.139-1.126-.397a1.847 1.847 0 01-.64-1.022 1.873 1.873 0 01.122-1.206 1.83 1.83 0 01.831-.868l7.25-3.687c.43-.218.927-.253 1.383-.098.455.155.83.488 1.046.924.214.437.25.943.099 1.406a1.835 1.835 0 01-.906 1.066l-7.25 3.688a1.79 1.79 0 01-.81.194z" fill="#000"/><path d="M9.064 48.61a1.79 1.79 0 01-.794-.188 1.82 1.82 0 01-.634-.522 1.86 1.86 0 01-.331-1.58l1.812-7.376a1.857 1.857 0 01.825-1.137 1.793 1.793 0 011.373-.21 1.8 1.8 0 011.116.842 1.864 1.864 0 01.202 1.398l-1.813 7.375a1.844 1.844 0 01-.641 1.006 1.79 1.79 0 01-1.115.391z" fill="#000"/><path d="M10.873 55.984a1.79 1.79 0 01-1.114-.39 1.844 1.844 0 01-.642-1.007l-1.812-7.375a1.874 1.874 0 01.202-1.398 1.8 1.8 0 011.823-.876 1.791 1.791 0 011.19.729c.14.195.243.417.3.652l1.813 7.375a1.878 1.878 0 01-.332 1.581c-.17.22-.386.4-.633.522a1.79 1.79 0 01-.795.187z" fill="#000"/><path d="M5.438 57.828c-.43 0-.847-.156-1.174-.44a1.87 1.87 0 01-.376-2.358c.222-.374.568-.655.976-.794l5.438-1.844a1.782 1.782 0 011.385.097c.213.109.404.258.56.441a1.851 1.851 0 01.44 1.34 1.87 1.87 0 01-.623 1.263c-.18.159-.39.28-.616.356l-5.437 1.844a1.78 1.78 0 01-.574.095z" fill="#000"/><path d="M5.436 57.828a1.8 1.8 0 01-.81-.194L1.003 55.79a1.835 1.835 0 01-.906-1.066 1.873 1.873 0 01.099-1.406c.215-.437.59-.77 1.046-.924.455-.155.952-.12 1.382.097l3.625 1.844c.366.186.659.492.832.868.173.377.216.801.122 1.206-.094.404-.32.764-.64 1.022a1.79 1.79 0 01-1.126.397z" fill="#000"/><path d="M9.064 70.913c-.3 0-.597-.076-.862-.22a1.822 1.822 0 01-.655-.612L.297 58.84a1.862 1.862 0 01-.26-1.386 1.861 1.861 0 01.78-1.167 1.797 1.797 0 011.364-.264 1.796 1.796 0 011.147.793l7.25 11.241a1.866 1.866 0 01-.586 2.595c-.28.17-.6.26-.928.26z" fill="#000"/><path d="M1.813 59.672a1.786 1.786 0 01-1.282-.54A1.846 1.846 0 010 57.828v-3.687c0-.49.191-.958.53-1.304.34-.346.802-.54 1.282-.54.481 0 .942.194 1.282.54.34.346.531.815.531 1.304v3.687a1.87 1.87 0 01-.53 1.304 1.81 1.81 0 01-1.283.54zm7.542 11.062a1.79 1.79 0 01-.992-.3 1.836 1.836 0 01-.668-.802 1.873 1.873 0 01.325-1.99l3.333-3.687a1.814 1.814 0 011.258-.594 1.783 1.783 0 011.303.485 1.843 1.843 0 01.585 1.28 1.872 1.872 0 01-.477 1.325l-3.333 3.687a1.781 1.781 0 01-1.335.596z" fill="#000"/><path d="M12.69 67.047a1.8 1.8 0 01-1.127-.397 1.847 1.847 0 01-.64-1.022 1.873 1.873 0 01.122-1.206 1.83 1.83 0 01.832-.868l3.625-1.844c.43-.217.927-.252 1.382-.097.455.155.831.487 1.046.924.215.436.25.942.1 1.405a1.835 1.835 0 01-.907 1.067l-3.625 1.843a1.79 1.79 0 01-.809.195z" fill="#000"/><path d="M16.314 65.203a1.79 1.79 0 01-.954-.275 1.832 1.832 0 01-.669-.744l-1.812-3.688a1.873 1.873 0 01-.096-1.405c.152-.463.479-.846.908-1.065.43-.218.927-.254 1.382-.1.456.154.833.485 1.048.921l1.813 3.688a1.87 1.87 0 01-.079 1.793 1.825 1.825 0 01-.659.641c-.27.153-.573.234-.882.234z" fill="#000"/><path d="M21.75 61.516H14.5c-.48 0-.942-.195-1.282-.54a1.86 1.86 0 01-.53-1.304c0-.49.19-.958.53-1.304.34-.346.801-.54 1.282-.54h7.25c.48 0 .942.194 1.282.54.34.346.53.815.53 1.304 0 .489-.19.958-.53 1.304a1.8 1.8 0 01-1.282.54z" fill="#000"/><path d="M27.188 67.047a1.78 1.78 0 01-1.282-.54l-5.437-5.532a1.86 1.86 0 01-.52-1.3 1.86 1.86 0 01.531-1.295 1.797 1.797 0 011.273-.54c.478-.002.938.188 1.279.528l5.437 5.532a1.874 1.874 0 01.393 2.01 1.84 1.84 0 01-.668.826c-.298.203-.648.31-1.006.31z" fill="#000"/><path d="M27.188 67.047c-.359 0-.71-.108-1.007-.311a1.838 1.838 0 01-.668-.827 1.874 1.874 0 01.393-2.01l3.625-3.687a1.794 1.794 0 012.551.012c.338.344.529.81.531 1.295a1.86 1.86 0 01-.52 1.3l-3.624 3.688a1.804 1.804 0 01-1.282.54z" fill="#000"/><path d="M38.064 65.203a1.77 1.77 0 01-.44-.056l-7.25-1.843a1.815 1.815 0 01-1.111-.84 1.87 1.87 0 01-.203-1.394 1.84 1.84 0 01.823-1.132c.41-.252.903-.327 1.369-.21l7.25 1.843c.428.11.803.374 1.053.745a1.868 1.868 0 01-.291 2.423 1.795 1.795 0 01-1.2.464z" fill="#000"/><path d="M39.877 68.89a1.79 1.79 0 01-.954-.274 1.833 1.833 0 01-.67-.745l-1.812-3.687a1.873 1.873 0 01-.096-1.406c.153-.463.48-.846.909-1.064.43-.218.926-.255 1.382-.1.455.153.832.485 1.048.92l1.812 3.688a1.871 1.871 0 01-.078 1.794 1.825 1.825 0 01-.659.64c-.27.154-.573.234-.882.235z" fill="#000"/><path d="M43.5 68.89h-3.625c-.48 0-.942-.194-1.282-.54a1.86 1.86 0 01-.53-1.303c0-.49.19-.958.53-1.304.34-.346.801-.54 1.282-.54H43.5c.48 0 .942.194 1.282.54.34.346.53.815.53 1.304 0 .489-.19.958-.53 1.304a1.8 1.8 0 01-1.282.54z" fill="#000"/><path d="M45.313 74.422c-.38 0-.751-.122-1.06-.348a1.841 1.841 0 01-.66-.912l-1.812-5.532a1.872 1.872 0 01.53-1.979 1.806 1.806 0 011.317-.447 1.787 1.787 0 011.241.633c.156.183.275.396.35.626l1.812 5.532a1.876 1.876 0 01-.25 1.66 1.79 1.79 0 01-1.47.767z" fill="#000"/><path d="M50.748 78.11a1.79 1.79 0 01-1.003-.31l-5.438-3.688a1.846 1.846 0 01-.76-1.171 1.87 1.87 0 01.271-1.376 1.812 1.812 0 011.145-.784 1.787 1.787 0 011.355.263l5.437 3.688c.324.22.57.539.701.912.131.372.141.778.028 1.157-.113.379-.342.71-.655.946a1.792 1.792 0 01-1.08.362z" fill="#000"/><path d="M50.75 78.11c-.43 0-.846-.156-1.174-.44a1.87 1.87 0 01-.377-2.358c.223-.374.57-.656.977-.795l5.438-1.843a1.784 1.784 0 011.381.101c.429.22.755.602.907 1.065a1.87 1.87 0 01-.097 1.405c-.214.437-.59.77-1.044.925l-5.438 1.844a1.783 1.783 0 01-.573.095z" fill="#000"/><path d="M59.81 78.11a1.79 1.79 0 01-.808-.195l-3.625-1.844a1.818 1.818 0 01-.56-.44 1.854 1.854 0 01-.442-1.34 1.868 1.868 0 01.622-1.265 1.805 1.805 0 011.318-.445c.238.017.47.083.683.192l3.625 1.843c.366.186.659.492.832.868.173.377.216.802.122 1.206-.094.405-.32.765-.64 1.022a1.79 1.79 0 01-1.126.397z" fill="#000"/><path d="M59.813 78.11c-.359 0-.71-.109-1.007-.311a1.838 1.838 0 01-.668-.828 1.874 1.874 0 01.393-2.009l1.813-1.844c.34-.34.8-.53 1.278-.528.477.002.935.196 1.273.54.338.344.528.81.53 1.295a1.86 1.86 0 01-.519 1.3l-1.812 1.844a1.804 1.804 0 01-1.282.54z" fill="#000"/><path d="M72.5 79.953a1.78 1.78 0 01-.573-.095L61.05 76.17a1.804 1.804 0 01-.615-.355 1.839 1.839 0 01-.622-1.263 1.875 1.875 0 01.44-1.34 1.816 1.816 0 011.242-.63c.238-.017.477.014.703.092l10.874 3.687c.409.139.755.42.977.795a1.87 1.87 0 01-.376 2.358 1.804 1.804 0 01-1.174.44z" fill="#000"/><path d="M72.502 79.953a1.8 1.8 0 01-1.126-.397 1.847 1.847 0 01-.64-1.022 1.872 1.872 0 01.122-1.206 1.83 1.83 0 01.831-.868l3.625-1.844c.43-.217.927-.252 1.383-.097.455.155.83.487 1.046.924.214.437.25.942.099 1.406a1.835 1.835 0 01-.906 1.066l-3.625 1.844a1.788 1.788 0 01-.81.194z" fill="#000"/><path d="M79.75 78.11h-3.625c-.48 0-.942-.195-1.282-.54a1.86 1.86 0 01-.53-1.304c0-.49.19-.958.53-1.304.34-.346.801-.54 1.282-.54h3.625c.48 0 .942.194 1.282.54.34.346.53.815.53 1.304 0 .489-.19.958-.53 1.303-.34.346-.801.54-1.282.54z" fill="#000"/><path d="M79.75 78.11a1.786 1.786 0 01-.825-.204 1.823 1.823 0 01-.644-.563 1.865 1.865 0 01-.25-1.66l1.813-5.532c.075-.23.194-.443.35-.626a1.788 1.788 0 012.559-.186 1.84 1.84 0 01.618 1.264c.017.242-.014.485-.09.715l-1.812 5.531c-.12.367-.351.686-.66.912a1.784 1.784 0 01-1.059.348z" fill="#000"/><path d="M85.188 72.578h-3.626c-.48 0-.941-.194-1.281-.54a1.86 1.86 0 01-.531-1.304c0-.489.191-.958.53-1.303.34-.346.802-.54 1.282-.54h3.626c.48 0 .941.194 1.281.54.34.345.531.814.531 1.303 0 .49-.191.958-.53 1.304-.34.346-.802.54-1.282.54z" fill="#000"/><path d="M88.813 76.266a1.78 1.78 0 01-1.282-.54l-3.625-3.688a1.86 1.86 0 01-.52-1.3 1.86 1.86 0 01.532-1.295 1.797 1.797 0 011.273-.54 1.79 1.79 0 011.278.528l3.625 3.687a1.874 1.874 0 01.393 2.009c-.138.337-.37.625-.668.828a1.79 1.79 0 01-1.007.31z" fill="#000"/><path d="M92.436 78.11a1.79 1.79 0 01-.81-.195l-3.624-1.844a1.835 1.835 0 01-.906-1.066 1.873 1.873 0 01.099-1.406 1.82 1.82 0 011.046-.924c.455-.155.952-.12 1.382.098l3.625 1.843c.366.186.659.492.832.868.173.377.216.802.122 1.206-.094.405-.32.765-.64 1.022a1.79 1.79 0 01-1.126.397z" fill="#000"/><path d="M92.44 78.11c-.41 0-.806-.14-1.126-.398a1.847 1.847 0 01-.64-1.022 1.873 1.873 0 01.121-1.206 1.83 1.83 0 01.832-.868l3.625-1.843c.43-.218.927-.253 1.382-.098.455.155.831.487 1.046.924.215.437.25.942.1 1.406a1.835 1.835 0 01-.907 1.066l-3.625 1.844a1.79 1.79 0 01-.809.194z" fill="#000"/><path d="M96.063 79.953a1.784 1.784 0 01-1.282-.54 1.843 1.843 0 01-.531-1.304v-3.687c0-.49.191-.958.53-1.304.34-.346.802-.54 1.282-.54.481 0 .942.194 1.282.54.34.346.531.815.531 1.304v3.687a1.872 1.872 0 01-.53 1.304 1.784 1.784 0 01-1.282.54z" fill="#000"/><path d="M94.248 83.73a1.751 1.751 0 01-.793-.187 1.833 1.833 0 01-.918-1.056 1.872 1.872 0 01.084-1.408l1.813-3.778a1.838 1.838 0 011.039-.935 1.785 1.785 0 011.947.522 1.85 1.85 0 01.451 1.334 1.868 1.868 0 01-.18.696l-1.813 3.777a1.82 1.82 0 01-.669.756 1.79 1.79 0 01-.96.28z" fill="#000"/><path d="M101.498 87.328c-.275 0-.546-.064-.793-.187l-7.25-3.598a1.817 1.817 0 01-.918-1.056 1.871 1.871 0 01.513-1.98 1.803 1.803 0 011.311-.46c.238.015.47.077.684.183l7.25 3.598c.368.183.665.487.841.864a1.87 1.87 0 01-.509 2.236c-.321.26-.719.4-1.129.4z" fill="#000"/><path d="M101.5 87.21a1.787 1.787 0 01-1.282-.54 1.851 1.851 0 01-.53-1.305v-14.63c0-.49.19-.959.53-1.304.34-.346.801-.54 1.282-.54s.942.194 1.282.54c.34.345.531.814.531 1.303v14.632a1.874 1.874 0 01-.531 1.304 1.805 1.805 0 01-1.282.54z" fill="#000"/><path d="M101.502 72.578a1.79 1.79 0 01-.954-.275 1.828 1.828 0 01-.67-.744l-3.624-7.375a1.868 1.868 0 01.249-2.036 1.817 1.817 0 011.243-.632 1.784 1.784 0 011.317.449c.18.159.327.352.433.57l3.625 7.375a1.871 1.871 0 01-.078 1.793 1.83 1.83 0 01-.659.641c-.27.153-.573.234-.882.234z" fill="#000"/><path d="M97.875 65.203H94.25c-.48 0-.942-.194-1.282-.54a1.86 1.86 0 01-.53-1.304c0-.489.19-.958.53-1.303.34-.346.801-.54 1.282-.54h3.625c.48 0 .942.194 1.282.54.34.345.53.814.53 1.303 0 .49-.19.958-.53 1.304-.34.346-.801.54-1.282.54z" fill="#000"/><path d="M94.252 65.203a1.79 1.79 0 01-.794-.187 1.822 1.822 0 01-.634-.522 1.862 1.862 0 01-.332-1.581l1.813-7.375a1.84 1.84 0 01.826-1.13c.412-.25.904-.325 1.37-.206a1.81 1.81 0 011.112.837c.248.418.322.918.207 1.392l-1.812 7.375a1.844 1.844 0 01-.642 1.006 1.79 1.79 0 01-1.114.391z" fill="#000"/><path d="M96.064 57.828c-.408 0-.805-.14-1.125-.397a1.847 1.847 0 01-.64-1.022 1.872 1.872 0 01.121-1.206 1.83 1.83 0 01.832-.868l7.25-3.687c.43-.218.927-.253 1.382-.098.455.155.831.487 1.046.924.215.437.25.942.099 1.406a1.834 1.834 0 01-.906 1.066l-7.25 3.688a1.788 1.788 0 01-.809.194z" fill="#000"/><path d="M103.312 54.14c-.287 0-.569-.07-.825-.203a1.828 1.828 0 01-.644-.563 1.874 1.874 0 01-.249-1.66l1.812-5.532a1.853 1.853 0 01.909-1.068 1.789 1.789 0 012 .256 1.865 1.865 0 01.529 1.979l-1.813 5.531c-.12.367-.351.686-.659.913a1.792 1.792 0 01-1.06.348zm9.063 7.376a1.785 1.785 0 01-1.282-.54l-5.437-5.532a1.86 1.86 0 01-.519-1.3c.002-.486.193-.951.531-1.295a1.794 1.794 0 011.273-.54 1.8 1.8 0 011.278.528l5.437 5.531a1.874 1.874 0 01.394 2.01c-.137.337-.37.624-.668.827-.298.202-.649.31-1.007.31z" fill="#000"/><path d="M106.936 55.984a1.79 1.79 0 01-1.115-.39 1.843 1.843 0 01-.641-1.007l-1.813-7.375a1.872 1.872 0 01.207-1.392 1.817 1.817 0 011.113-.837 1.784 1.784 0 011.369.206c.412.25.709.657.827 1.13l1.812 7.375a1.872 1.872 0 01-.331 1.581c-.17.22-.387.4-.634.522a1.789 1.789 0 01-.794.187zm-45.311 9.219c-.424 0-.835-.15-1.161-.427C59.55 64 38.063 45.545 38.063 24.641c0-6.357 2.482-12.454 6.9-16.949 4.42-4.495 10.413-7.02 16.662-7.02 6.25 0 12.242 2.525 16.661 7.02 4.419 4.495 6.901 10.592 6.901 16.949 0 20.904-21.487 39.36-22.4 40.135a1.793 1.793 0 01-1.162.427zm0-60.844c-5.286.006-10.354 2.145-14.091 5.947-3.738 3.803-5.84 8.958-5.846 14.335 0 16.545 15.515 32.146 19.937 36.255 4.42-4.112 19.938-19.734 19.938-36.255-.007-5.377-2.109-10.532-5.847-14.335-3.737-3.802-8.805-5.94-14.091-5.947z" fill="#000"/><path d="M61.625 37.547c-2.51 0-4.962-.757-7.049-2.175a12.862 12.862 0 01-4.673-5.792 13.113 13.113 0 01-.722-7.457 12.976 12.976 0 013.473-6.609 12.623 12.623 0 016.496-3.532 12.488 12.488 0 017.33.735 12.73 12.73 0 015.694 4.753 13.065 13.065 0 012.138 7.17 13.036 13.036 0 01-3.72 9.122 12.595 12.595 0 01-8.967 3.785zm0-22.125c-1.792 0-3.544.54-5.035 1.553a9.188 9.188 0 00-3.338 4.138 9.367 9.367 0 00-.515 5.326 9.27 9.27 0 002.48 4.72 9.017 9.017 0 004.64 2.523 8.919 8.919 0 005.236-.524 9.098 9.098 0 004.067-3.396 9.332 9.332 0 00-1.13-11.637 8.995 8.995 0 00-6.405-2.703z" fill="#000"/></svg>