<svg width="57" height="57" fill="none" xmlns="http://www.w3.org/2000/svg"><path d="M28.5.583C13.09.583.583 13.09.583 28.5c0 15.41 12.507 27.917 27.917 27.917 15.41 0 27.917-12.507 27.917-27.917C56.417 13.09 43.91.583 28.5.583zm12.953 18.984c-.418 4.41-2.233 15.13-3.154 20.072-.391 2.093-1.173 2.791-1.898 2.875-1.62.14-2.848-1.06-4.411-2.094-2.457-1.619-3.853-2.624-6.226-4.187-2.764-1.815-.977-2.82.614-4.439.42-.419 7.566-6.923 7.705-7.51a.558.558 0 00-.14-.502c-.167-.14-.39-.084-.585-.056-.252.056-4.16 2.652-11.781 7.789-1.117.754-2.122 1.145-3.015 1.117-1.005-.028-2.904-.559-4.327-1.033-1.76-.559-3.127-.866-3.015-1.843.055-.502.753-1.005 2.066-1.535 8.151-3.546 13.567-5.89 16.275-7.007 7.76-3.239 9.352-3.797 10.413-3.797.223 0 .754.056 1.089.335.279.223.362.53.39.754-.028.167.028.67 0 1.06z" fill="#4E4D6D"/></svg>