<svg width="93" height="94" fill="none" xmlns="http://www.w3.org/2000/svg"><path d="M82.584 21.436c1.296-2.69 2.184-5.477 2.184-8.074C84.768 5.994 78.845 0 71.564 0 66.85 0 62.707 2.514 60.37 6.285a43.717 43.717 0 00-7.866-1.563 1.39 1.39 0 00-1.52 1.251 1.397 1.397 0 001.236 1.538c2.338.243 4.66.69 6.918 1.33a13.444 13.444 0 00-.779 4.52c0 9.443 11.726 21.417 12.225 21.922.534.54 1.426.54 1.959 0 .315-.319 5.107-5.212 8.596-11.152a41.727 41.727 0 016.369 12.545l-20.09 2.14a1.382 1.382 0 00-.92.497c-.208.253-5.122 6.229-7.64 10.056a13.056 13.056 0 00-7.521 3.033L49.29 40.041a1.406 1.406 0 00-.475-.842l-10.712-9.095a1.376 1.376 0 00-.718-.317L26.41 28.398c-1.35-3.901-4.437-6.981-8.32-8.284 7.377-7.752 17.209-12.276 27.867-12.78a1.395 1.395 0 001.32-1.465 1.39 1.39 0 00-1.449-1.334 43.422 43.422 0 00-17.201 4.424 44.191 44.191 0 00-13.732 10.515 13.14 13.14 0 00-.951-.039C6.663 19.435.739 25.43.739 32.797c0 3.329 1.458 6.972 3.367 10.317a45.856 45.856 0 00-.412 6.129c0 11.955 4.6 23.194 12.955 31.648C25.003 89.344 36.11 94 47.924 94 59.74 94 70.846 89.344 79.2 80.89c8.355-8.453 12.955-19.692 12.955-31.647 0-10.216-3.31-19.828-9.571-27.808zm-11.02 10.82c-2.767-3.038-10.435-12.072-10.435-18.894 0-5.822 4.68-10.559 10.435-10.559 5.753 0 10.434 4.737 10.434 10.559 0 6.822-7.668 15.857-10.434 18.894zm-11.82 19.883c5.753 0 10.434 4.737 10.434 10.559 0 6.822-7.667 15.856-10.434 18.894C56.977 78.554 49.31 69.52 49.31 62.698c0-5.822 4.68-10.559 10.434-10.559zM3.509 32.797c0-5.822 4.68-10.558 10.434-10.558s10.435 4.736 10.435 10.558c0 6.823-7.668 15.857-10.435 18.894C11.177 48.654 3.51 39.62 3.51 32.797zm2.955 16.446c0-.776.022-1.553.064-2.328 3.036 4.335 6.183 7.547 6.436 7.804.533.54 1.426.54 1.959 0 .26-.264 3.58-3.654 6.695-8.177l5.403 12.302c.116.264.31.485.553.633l7.977 4.843-3.582 10.984-9.28 7.203A42.082 42.082 0 016.465 49.243zm18.58 34.969l8.949-6.947a1.4 1.4 0 00.472-.673l4.063-12.458a1.41 1.41 0 00-.602-1.641L29.375 57.3l-5.957-13.563c2.085-3.511 3.73-7.404 3.73-10.94 0-.505-.03-1.002-.084-1.492l9.572 1.211 10.007 8.497 2.314 13.992a13.39 13.39 0 00-2.417 7.692c0 1.863.457 3.825 1.194 5.777l-3.9 11.206-13.232 7.674a41.33 41.33 0 01-5.558-3.143zm22.88 6.985c-4.94 0-9.681-.88-14.08-2.493l11.814-6.85c.289-.167.508-.433.618-.75l3.13-8.994c3.506 6.535 9.02 12.166 9.359 12.51a1.389 1.389 0 001.959 0c.388-.394 7.59-7.749 10.755-15.444l11.323 2.728C75.418 83.5 62.542 91.197 47.924 91.197zm24.47-24.683c.351-1.294.555-2.577.555-3.816 0-6.553-4.688-12.015-10.846-13.144 2.126-3.009 5.14-6.75 6.166-8.01l19.984-2.128a42.79 42.79 0 011.132 9.826c0 7.293-1.85 14.157-5.098 20.138l-11.894-2.865z" fill="#000"/><path d="M59.744 55.316c-4.022 0-7.295 3.311-7.295 7.382 0 4.07 3.273 7.382 7.295 7.382s7.295-3.312 7.295-7.382-3.273-7.382-7.295-7.382zm0 11.96c-2.495 0-4.525-2.054-4.525-4.578 0-2.525 2.03-4.579 4.525-4.579 2.495 0 4.525 2.054 4.525 4.579 0 2.524-2.03 4.578-4.525 4.578zM71.564 5.98c-4.023 0-7.295 3.312-7.295 7.382s3.272 7.382 7.294 7.382c4.023 0 7.295-3.312 7.295-7.382S75.586 5.98 71.564 5.98zm0 11.96c-2.496 0-4.525-2.054-4.525-4.578 0-2.525 2.03-4.579 4.525-4.579 2.495 0 4.524 2.055 4.524 4.579 0 2.524-2.03 4.578-4.524 4.578zm-57.621 7.475c-4.022 0-7.295 3.312-7.295 7.382s3.273 7.382 7.295 7.382c4.023 0 7.295-3.312 7.295-7.382s-3.272-7.382-7.295-7.382zm0 11.96c-2.495 0-4.524-2.053-4.524-4.578 0-2.524 2.03-4.578 4.524-4.578 2.495 0 4.525 2.054 4.525 4.578 0 2.525-2.03 4.579-4.525 4.579z" fill="#000"/></svg>