<svg width="94" height="94" viewBox="0 0 94 94" fill="none" xmlns="http://www.w3.org/2000/svg">
<path d="M46.9998 1.0955e-07C39.7741 -0.000493198 32.6455 1.66505 26.168 4.86722C19.6906 8.06938 14.0386 12.7219 9.65145 18.4633C5.26424 24.2048 2.25991 30.8804 0.871885 37.9716C-0.516136 45.0628 -0.250461 52.3785 1.64827 59.3503C3.54699 66.3221 7.02764 72.7623 11.8197 78.1703C16.6118 83.5784 22.5863 87.8087 29.279 90.5326C35.9717 93.2565 43.2023 94.4006 50.409 93.876C57.6156 93.3513 64.6043 91.1722 70.8319 87.5077L84.6484 91.2677C85.5653 91.5188 86.5324 91.5227 87.4513 91.2791C88.3703 91.0355 89.2085 90.5531 89.8807 89.8809C90.5529 89.2087 91.0353 88.3705 91.2789 87.4515C91.5225 86.5326 91.5186 85.5655 91.2675 84.6486L87.5075 70.8321C91.7074 63.6933 93.9461 55.5713 93.997 47.2888C94.0479 39.0063 91.9092 30.8574 87.7973 23.6675C83.6855 16.4775 77.7467 10.5019 70.5823 6.34565C63.4179 2.18945 55.2825 0.000332822 46.9998 1.0955e-07ZM84.3084 71.0107L88.2454 85.4758C88.35 85.8594 88.3511 86.2639 88.2489 86.6482C88.1466 87.0325 87.9445 87.3829 87.663 87.6638C87.3816 87.9448 87.0309 88.1463 86.6464 88.2479C86.262 88.3495 85.8575 88.3477 85.474 88.2425L71.009 84.3055C70.8034 84.249 70.5884 84.2355 70.3774 84.2656C70.1663 84.2958 69.9638 84.3691 69.7823 84.4809C60.6152 90.053 49.7241 92.0728 39.1687 90.1584C28.6132 88.2439 19.1252 82.5278 12.499 74.0912C5.87282 65.6546 2.5678 55.0824 3.20902 44.3739C3.85024 33.6654 8.39323 23.5631 15.9788 15.9775C23.5644 8.39187 33.6668 3.84888 44.3752 3.20766C55.0837 2.56644 65.656 5.87146 74.0926 12.4977C82.5292 19.1239 88.2452 28.6119 90.1597 39.1673C92.0742 49.7228 90.0544 60.6139 84.4823 69.7809C84.371 69.9632 84.2982 70.1664 84.2683 70.3779C84.2384 70.5893 84.252 70.8047 84.3084 71.0107Z" fill="black"/>
<path d="M32.9 56.4C33.3155 56.4 33.714 56.2349 34.0078 55.9411C34.3016 55.6473 34.4666 55.2488 34.4666 54.8333C34.4666 54.4178 34.3016 54.0193 34.0078 53.7255C33.714 53.4317 33.3155 53.2667 32.9 53.2667H25.9173C26.7172 52.6286 27.5747 52.0663 28.4788 51.5872C31.1469 50.0456 34.4666 48.1296 34.4666 43.8667C34.4666 42.2046 33.8064 40.6107 32.6312 39.4355C31.4559 38.2602 29.862 37.6 28.2 37.6C26.5379 37.6 24.944 38.2602 23.7688 39.4355C22.5935 40.6107 21.9333 42.2046 21.9333 43.8667C21.9333 44.2822 22.0984 44.6807 22.3922 44.9745C22.686 45.2683 23.0845 45.4333 23.5 45.4333C23.9155 45.4333 24.314 45.2683 24.6078 44.9745C24.9016 44.6807 25.0666 44.2822 25.0666 43.8667C25.0666 43.0357 25.3968 42.2387 25.9844 41.6511C26.572 41.0635 27.369 40.7333 28.2 40.7333C29.031 40.7333 29.828 41.0635 30.4156 41.6511C31.0032 42.2387 31.3333 43.0357 31.3333 43.8667C31.3333 46.1556 29.6632 47.2851 26.9122 48.88C24.5778 50.2211 21.9333 51.747 21.9333 54.8333C21.9333 55.2488 22.0984 55.6473 22.3922 55.9411C22.686 56.2349 23.0845 56.4 23.5 56.4H32.9Z" fill="black"/>
<path d="M62.6666 39.1667C62.6666 39.5822 62.8317 39.9807 63.1255 40.2745C63.4193 40.5683 63.8178 40.7333 64.2333 40.7333H69.5318L62.8233 54.133C62.6376 54.5049 62.6072 54.9353 62.7388 55.3296C62.8704 55.7239 63.1533 56.0498 63.5252 56.2355C63.8971 56.4212 64.3275 56.4516 64.7218 56.32C65.1161 56.1884 65.4419 55.9055 65.6276 55.5336L73.461 39.867C73.5801 39.6287 73.6364 39.3639 73.6247 39.0977C73.613 38.8316 73.5336 38.5728 73.394 38.3459C73.2544 38.1189 73.0593 37.9314 72.827 37.8008C72.5948 37.6703 72.3331 37.6012 72.0666 37.6H64.2333C63.8178 37.6 63.4193 37.7651 63.1255 38.0589C62.8317 38.3527 62.6666 38.7512 62.6666 39.1667Z" fill="black"/>
<path d="M45.4333 56.4C45.8488 56.4 46.2473 56.2349 46.5411 55.9411C46.8349 55.6473 47 55.2488 47 54.8333V51.7H48.5666C48.9821 51.7 49.3806 51.5349 49.6744 51.2411C49.9682 50.9473 50.1333 50.5488 50.1333 50.1333C50.1333 49.7178 49.9682 49.3193 49.6744 49.0255C49.3806 48.7317 48.9821 48.5667 48.5666 48.5667H47V47C47 46.5845 46.8349 46.186 46.5411 45.8922C46.2473 45.5984 45.8488 45.4333 45.4333 45.4333C45.0178 45.4333 44.6193 45.5984 44.3255 45.8922C44.0317 46.186 43.8666 46.5845 43.8666 47V48.5667H40.3009L45.2265 39.95C45.3344 39.7712 45.4054 39.5726 45.4354 39.3659C45.4655 39.1592 45.4538 38.9486 45.4013 38.7464C45.3487 38.5443 45.2563 38.3547 45.1293 38.1888C45.0024 38.023 44.8437 37.8841 44.6623 37.7805C44.481 37.6769 44.2807 37.6106 44.0734 37.5854C43.8661 37.5603 43.6558 37.5769 43.455 37.6343C43.2541 37.6916 43.0668 37.7885 42.9039 37.9193C42.7411 38.0501 42.6061 38.2121 42.5068 38.3959L36.2401 49.3625C36.1056 49.6006 36.0357 49.8697 36.0374 50.1431C36.0391 50.4166 36.1124 50.6848 36.2499 50.9212C36.3874 51.1575 36.5843 51.3538 36.8212 51.4904C37.058 51.627 37.3265 51.6993 37.6 51.7H43.8666V54.8333C43.8666 55.2488 44.0317 55.6473 44.3255 55.9411C44.6193 56.2349 45.0178 56.4 45.4333 56.4Z" fill="black"/>
<path d="M56.447 37.2209L51.747 56.0209C51.6465 56.4239 51.7103 56.8503 51.9241 57.2064C52.138 57.5625 52.4845 57.819 52.8875 57.9197C53.0115 57.9505 53.1388 57.9663 53.2666 57.9667C53.6158 57.9662 53.9549 57.8491 54.2299 57.634C54.505 57.4188 54.7002 57.118 54.7847 56.7791L59.4847 37.9791C59.54 37.7778 59.5544 37.5674 59.5271 37.3604C59.4999 37.1534 59.4315 36.9539 59.3261 36.7737C59.2207 36.5935 59.0803 36.4362 58.9132 36.311C58.7461 36.1858 58.5557 36.0953 58.3531 36.0447C58.1505 35.9942 57.9399 35.9847 57.7335 36.0167C57.5272 36.0487 57.3294 36.1217 57.1517 36.2312C56.9739 36.3408 56.8199 36.4848 56.6986 36.6547C56.5773 36.8247 56.4928 37.0172 56.447 37.2209Z" fill="black"/>
<path d="M74.0861 28.2846C73.7345 28.5056 73.485 28.8571 73.3925 29.2619C73.3 29.6667 73.3719 30.0917 73.5926 30.4435C77.4729 36.6581 79.0515 44.0364 78.0538 51.2947C77.0561 58.553 73.5452 65.2318 68.132 70.1689C62.7189 75.1061 55.746 77.9891 48.4268 78.3164C41.1076 78.6437 33.9053 76.3945 28.0731 71.9601L31.4007 71.7533C31.8162 71.7274 32.2043 71.5374 32.4798 71.2252C32.7552 70.9131 32.8954 70.5043 32.8694 70.0888C32.8434 69.6732 32.6535 69.2851 32.3413 69.0096C32.0291 68.7342 31.6203 68.594 31.2048 68.62L24.0123 69.0681C23.5976 69.0943 23.2103 69.2841 22.9356 69.5958C22.6609 69.9075 22.5213 70.3156 22.5474 70.7303L22.9955 77.9213C23.0203 78.3198 23.1962 78.6937 23.4873 78.9668C23.7785 79.2399 24.163 79.3916 24.5622 79.3908H24.6609C24.8663 79.3781 25.0673 79.3249 25.2522 79.2345C25.4371 79.144 25.6024 79.018 25.7385 78.8636C25.8747 78.7093 25.9792 78.5296 26.0459 78.3348C26.1126 78.14 26.1402 77.9341 26.1273 77.7286L25.9095 74.2271C32.2984 79.1831 40.2271 81.7335 48.3073 81.4317C56.3874 81.1299 64.1038 77.9951 70.1052 72.5763C76.1065 67.1576 80.0103 59.8002 81.1328 51.7928C82.2553 43.7853 80.525 35.6382 76.2449 28.7781C76.024 28.4265 75.6724 28.1771 75.2676 28.0845C74.8628 27.992 74.4378 28.064 74.0861 28.2846Z" fill="black"/>
<path d="M15.6666 47C15.6631 41.1662 17.2892 35.4473 20.3617 30.4882C23.4343 25.5291 27.831 21.5268 33.0563 18.9327C38.2816 16.3385 44.1277 15.2556 49.9355 15.806C55.7433 16.3563 61.2819 18.5182 65.9269 22.0477L62.5993 22.2545C62.3935 22.2609 62.1911 22.3077 62.0034 22.3923C61.8158 22.477 61.6467 22.5977 61.5057 22.7477C61.3647 22.8977 61.2547 23.074 61.1818 23.2665C61.109 23.459 61.0748 23.664 61.0812 23.8697C61.0876 24.0755 61.1344 24.2779 61.219 24.4656C61.3036 24.6532 61.4244 24.8223 61.5744 24.9633C61.7244 25.1043 61.9007 25.2143 62.0932 25.2872C62.2857 25.36 62.4907 25.3942 62.6964 25.3878H62.7951L69.9877 24.9398C70.4024 24.9136 70.7896 24.7238 71.0643 24.412C71.3391 24.1003 71.4787 23.6922 71.4525 23.2775L71.0044 16.0865C70.9948 15.8801 70.9438 15.6778 70.8544 15.4915C70.7651 15.3052 70.6393 15.1387 70.4844 15.0019C70.3295 14.8652 70.1488 14.7609 69.9528 14.6953C69.7569 14.6297 69.5498 14.6042 69.3438 14.6201C69.1383 14.6329 68.9374 14.686 68.7525 14.7765C68.5676 14.867 68.4023 14.993 68.2661 15.1474C68.1299 15.3017 68.0255 15.4814 67.9588 15.6762C67.8921 15.8709 67.8644 16.0769 67.8774 16.2824L68.0951 19.7839C61.707 14.83 53.78 12.2808 45.7018 12.5825C37.6235 12.8842 29.9087 16.0175 23.9079 21.434C17.907 26.8505 14.0024 34.2051 12.8775 42.2103C11.7527 50.2155 13.4792 58.3614 17.755 65.2219C17.896 65.4469 18.0919 65.6324 18.3243 65.761C18.5567 65.8895 18.818 65.9568 19.0835 65.9567C19.3777 65.9571 19.6658 65.8734 19.9139 65.7154C20.2654 65.4944 20.5149 65.1429 20.6074 64.7381C20.7 64.3333 20.628 63.9083 20.4074 63.5565C17.3014 58.5934 15.6583 52.8549 15.6666 47Z" fill="black"/>
</svg>
