<svg width="64" height="34" viewBox="0 0 64 34" fill="none" xmlns="http://www.w3.org/2000/svg">
<path d="M15.2582 7.11169C12.1525 14.5022 9.32905 21.335 6.50566 28.1678C7.07034 29.0045 7.77619 28.865 8.34086 28.865C10.7408 28.865 13.1406 28.865 15.5405 28.865C16.1052 28.865 16.8111 28.865 17.3757 29.0045C18.3639 29.2834 18.9286 30.12 18.9286 31.0961C18.9286 32.0722 18.2228 32.63 17.3757 32.9089C16.8111 32.9089 16.2464 32.9089 15.6817 32.9089C11.8701 32.9089 8.05853 32.9089 4.24694 32.9089C1.1412 32.9089 0.294184 31.6539 1.42354 28.865C5.09396 20.3589 8.6232 11.7134 12.2936 3.0678C12.7171 2.09169 13.2818 0.976133 14.4112 0.5578C15.8229 2.16812e-05 17.3757 0.557799 18.0816 2.23113C19.7756 6.27502 21.4697 10.1795 23.0225 14.2234C24.8577 18.6856 26.8341 23.2872 28.6693 27.7495C28.9517 28.4467 29.234 29.1439 29.5163 29.9806C29.7987 31.2356 29.5163 32.2117 28.387 32.7695C27.3988 33.1878 26.2694 32.7695 25.7048 31.5145C24.5754 29.2834 23.7284 26.9128 22.7402 24.5422C20.3403 18.825 18.0816 13.2472 15.3994 6.97224L15.2582 7.11169Z" fill="#3B3A46"/>
<path d="M63.9618 16.5939C63.9618 24.9606 58.0327 31.7934 49.8448 33.0484C48.7154 33.1878 47.5861 33.3272 46.4567 33.0484C45.6097 32.7695 44.7627 32.3511 44.7627 31.375C44.7627 30.2595 45.3274 29.5622 46.3156 29.2834C47.0214 29.0045 47.7273 29.1439 48.4331 29.0045C54.5034 28.7256 59.4444 23.845 59.5855 17.8489C59.7267 11.8528 56.7621 7.11169 51.68 5.43835C50.5507 5.02002 49.4213 4.88058 48.1508 4.88058C47.4449 4.88058 46.7391 4.88058 46.0332 4.60169C45.1862 4.18336 44.6215 3.48613 44.7627 2.51002C44.7627 1.53391 45.4685 1.11558 46.1744 0.836688C46.8802 0.5578 47.5861 0.5578 48.2919 0.5578C55.2093 0.836688 60.7149 5.5778 62.9736 11.295C63.6795 13.1078 64.103 14.9206 63.9618 16.5939Z" fill="#3B3A46"/>
<path d="M37.4219 16.7334C37.4219 12.8289 37.4219 8.92447 37.4219 4.88058C37.4219 4.46224 37.4219 3.90447 37.4219 3.48613C37.4219 1.53391 38.1277 0.5578 39.3982 0.5578C40.5276 0.5578 41.3746 1.39447 41.657 3.20724C41.657 3.90447 41.657 4.60169 41.657 5.29891C41.657 12.9684 41.657 20.6378 41.657 28.4467C41.657 29.5622 41.657 30.6778 41.2334 31.6539C40.9511 32.4906 40.2453 33.1878 39.2571 33.0484C38.2689 32.9089 37.563 32.3511 37.4219 31.2356C37.4219 30.6778 37.4219 29.9806 37.4219 29.2834C37.4219 25.1 37.4219 20.9167 37.4219 16.7334Z" fill="#3B3A46"/>
</svg>
