<svg width="57" height="57" viewBox="0 0 57 57" fill="none" xmlns="http://www.w3.org/2000/svg">
<path d="M28.5 0.583252C13.09 0.583252 0.583374 13.0899 0.583374 28.4999C0.583374 43.9099 13.09 56.4166 28.5 56.4166C43.91 56.4166 56.4167 43.9099 56.4167 28.4999C56.4167 13.0899 43.91 0.583252 28.5 0.583252ZM41.4534 19.5666C41.0346 23.9774 39.22 34.6974 38.2988 39.6387C37.908 41.7324 37.1263 42.4303 36.4005 42.5141C34.7813 42.6537 33.553 41.4533 31.9896 40.4203C29.533 38.8012 28.1371 37.7962 25.7642 36.2328C23.0005 34.4183 24.7871 33.4132 26.3784 31.7941C26.7971 31.3753 33.9438 24.8708 34.0834 24.2845C34.1028 24.1957 34.1002 24.1035 34.0759 24.016C34.0515 23.9284 34.0062 23.8481 33.9438 23.782C33.7763 23.6424 33.553 23.6982 33.3575 23.7262C33.1063 23.782 29.198 26.3783 21.5767 31.5149C20.46 32.2687 19.455 32.6595 18.5617 32.6316C17.5567 32.6037 15.6584 32.0732 14.2346 31.5987C12.4759 31.0403 11.108 30.7332 11.2196 29.7562C11.2755 29.2537 11.9734 28.7512 13.2855 28.2207C21.4371 24.6753 26.853 22.3303 29.5609 21.2137C37.3217 17.9753 38.913 17.417 39.9738 17.417C40.1971 17.417 40.7275 17.4728 41.0625 17.752C41.3417 17.9753 41.4255 18.2824 41.4534 18.5058C41.4255 18.6733 41.4813 19.1758 41.4534 19.5666Z" fill="#4E4D6D"/>
</svg>
