<svg width="94" height="94" viewBox="0 0 94 94" fill="none" xmlns="http://www.w3.org/2000/svg">
<path d="M33.3548 6.06452C26.667 6.06452 21.2258 11.5057 21.2258 18.1935H24.2581C24.2581 13.1766 28.3378 9.09677 33.3548 9.09677V6.06452Z" fill="black"/>
<path d="M81.871 51.5484H60.6452V43.9677H80.3548C87.8777 43.9677 94 37.8455 94 30.3226C94 22.7997 87.8777 16.6774 80.3548 16.6774H78.7617C77.9866 7.35485 70.1646 0 60.6452 0C55.4113 0 50.455 2.28012 47.02 6.17038C43.6391 2.30899 38.7279 0 33.3548 0C23.7983 0 15.9556 7.4126 15.2324 16.7862C13.1825 16.5368 11.1666 16.7596 9.22114 17.4718C3.53714 19.5505 -0.0821731 24.6719 0.00148059 30.5195C0.107343 37.9351 6.22664 43.9677 13.6452 43.9677H36.3871V51.5484H12.129V66.7097H0V94H27.2903V66.7097H15.1613V54.5807H39.4194V43.9677H45.4839V66.7097H33.3548V94H60.6452V66.7097H48.5161V40.9355H13.6452C7.87602 40.9355 3.11591 36.2442 3.03374 30.4773C2.97007 25.9363 5.80689 21.9491 10.2627 20.3189C11.8907 19.723 13.5341 19.5883 15.2464 19.8629C15.3478 20.9771 15.5418 22.0809 15.8453 23.1543L18.7636 22.3296C18.3845 20.9897 18.1936 19.5986 18.1936 18.1936C18.1936 9.83337 24.9947 3.03226 33.3548 3.03226C39.6481 3.03226 45.1944 6.81962 47.4819 12.6806L50.3069 11.5775C49.9094 10.5611 49.423 9.6061 48.8722 8.69923C51.7453 5.14581 56.062 3.03226 60.6452 3.03226C68.4938 3.03226 74.9662 9.02719 75.7295 16.6774H69.7419V19.7097H80.3548C86.2069 19.7097 90.9678 24.4705 90.9678 30.3226C90.9678 36.1746 86.2069 40.9355 80.3548 40.9355H57.6129V54.5807H78.8387V66.7097H66.7097V94H94V66.7097H81.871V51.5484ZM3.03226 90.9678V81.871H24.2581V90.9678H3.03226ZM24.2581 78.8387H3.03226V69.7419H24.2581V78.8387ZM36.3871 90.9678V81.871H57.6129V90.9678H36.3871ZM57.6129 78.8387H36.3871V69.7419H57.6129V78.8387ZM69.7419 90.9678V81.871H90.9678V90.9678H69.7419ZM90.9678 78.8387H69.7419V69.7419H90.9678V78.8387Z" fill="black"/>
<path d="M39.4194 25.7742H42.4516V28.8065H39.4194V25.7742Z" fill="black"/>
<path d="M45.4839 25.7742H48.5161V28.8065H45.4839V25.7742Z" fill="black"/>
<path d="M51.5484 25.7742H54.5806V28.8065H51.5484V25.7742Z" fill="black"/>
<path d="M60.6452 25.7742H57.6129V31.8387H27.2903V34.871H60.6452V25.7742Z" fill="black"/>
<path d="M40.9355 72.7742H43.9677V75.8065H40.9355V72.7742Z" fill="black"/>
<path d="M50.0323 72.7742H53.0645V75.8065H50.0323V72.7742Z" fill="black"/>
<path d="M40.9355 84.9032H43.9677V87.9355H40.9355V84.9032Z" fill="black"/>
<path d="M50.0323 84.9032H53.0645V87.9355H50.0323V84.9032Z" fill="black"/>
<path d="M7.58064 72.7742H10.6129V75.8065H7.58064V72.7742Z" fill="black"/>
<path d="M16.6774 72.7742H19.7097V75.8065H16.6774V72.7742Z" fill="black"/>
<path d="M7.58064 84.9032H10.6129V87.9355H7.58064V84.9032Z" fill="black"/>
<path d="M16.6774 84.9032H19.7097V87.9355H16.6774V84.9032Z" fill="black"/>
<path d="M74.2903 72.7742H77.3226V75.8065H74.2903V72.7742Z" fill="black"/>
<path d="M83.3871 72.7742H86.4193V75.8065H83.3871V72.7742Z" fill="black"/>
<path d="M74.2903 84.9032H77.3226V87.9355H74.2903V84.9032Z" fill="black"/>
<path d="M83.3871 84.9032H86.4193V87.9355H83.3871V84.9032Z" fill="black"/>
</svg>
