<svg width="28" height="28" viewBox="0 0 28 28" fill="none" xmlns="http://www.w3.org/2000/svg">
<path d="M3.31256 17.5311H1.06256C0.838785 17.5311 0.624173 17.62 0.46594 17.7783C0.307706 17.9365 0.218811 18.1511 0.218811 18.3749V26.2499C0.218811 26.4737 0.307706 26.6883 0.46594 26.8465C0.624173 27.0047 0.838785 27.0936 1.06256 27.0936H3.31256C4.58063 27.0936 5.79676 26.5899 6.69342 25.6932C7.59007 24.7966 8.09381 23.5804 8.09381 22.3124C8.09381 21.0443 7.59007 19.8282 6.69342 18.9315C5.79676 18.0349 4.58063 17.5311 3.31256 17.5311ZM3.31256 25.4061H1.90631V19.2186H3.31256C4.13307 19.2186 4.91998 19.5446 5.50017 20.1248C6.08036 20.705 6.40631 21.4919 6.40631 22.3124C6.40631 23.1329 6.08036 23.9198 5.50017 24.5C4.91998 25.0802 4.13307 25.4061 3.31256 25.4061ZM26.9587 24.6383C27.1201 24.7931 27.2134 25.0057 27.2181 25.2293C27.2229 25.4529 27.1387 25.6693 26.984 25.8308C26.6185 26.2249 26.1765 26.5402 25.6849 26.7573C25.1933 26.9745 24.6625 27.0889 24.1251 27.0936C21.7991 27.0936 19.9063 24.9491 19.9063 22.3124C19.9063 19.6757 21.7991 17.5311 24.1251 17.5311C24.6627 17.5362 25.1936 17.6511 25.6852 17.8687C26.1768 18.0863 26.6188 18.4022 26.984 18.7968C27.1314 18.9596 27.2096 19.1735 27.2018 19.393C27.1941 19.6125 27.101 19.8203 26.9424 19.9723C26.7838 20.1243 26.5722 20.2085 26.3526 20.2069C26.1329 20.2053 25.9226 20.1182 25.7662 19.9639C25.5575 19.7348 25.3044 19.5506 25.0223 19.4224C24.7402 19.2943 24.4349 19.2249 24.1251 19.2186C22.7287 19.2186 21.5938 20.6066 21.5938 22.3124C21.5938 24.0182 22.7287 25.4061 24.1251 25.4061C24.4347 25.4002 24.7398 25.3313 25.022 25.2036C25.3041 25.076 25.5573 24.8922 25.7662 24.6636C25.921 24.5022 26.1336 24.4089 26.3572 24.4041C26.5808 24.3994 26.7971 24.4836 26.9587 24.6383ZM14.0001 17.5311C11.6741 17.5311 9.78131 19.6757 9.78131 22.3124C9.78131 24.9491 11.6741 27.0936 14.0001 27.0936C16.326 27.0936 18.2188 24.9491 18.2188 22.3124C18.2188 19.6757 16.326 17.5311 14.0001 17.5311ZM14.0001 25.4061C12.6037 25.4061 11.4688 24.0182 11.4688 22.3124C11.4688 20.6066 12.6037 19.2186 14.0001 19.2186C15.3965 19.2186 16.5313 20.6066 16.5313 22.3124C16.5313 24.0182 15.3965 25.4061 14.0001 25.4061ZM2.75006 13.5936C2.97384 13.5936 3.18845 13.5047 3.34668 13.3465C3.50492 13.1883 3.59381 12.9737 3.59381 12.7499V2.62488C3.59381 2.55029 3.62344 2.47875 3.67619 2.426C3.72893 2.37326 3.80047 2.34363 3.87506 2.34363H16.5313V9.37488C16.5313 9.59865 16.6202 9.81326 16.7784 9.9715C16.9367 10.1297 17.1513 10.2186 17.3751 10.2186H24.4063V12.7499C24.4063 12.9737 24.4952 13.1883 24.6534 13.3465C24.8117 13.5047 25.0263 13.5936 25.2501 13.5936C25.4738 13.5936 25.6884 13.5047 25.8467 13.3465C26.0049 13.1883 26.0938 12.9737 26.0938 12.7499V9.37488C26.0936 9.15118 26.0046 8.93671 25.8463 8.77863L17.9713 0.903628C17.8132 0.745349 17.5988 0.656325 17.3751 0.656128H3.87506C3.35292 0.656128 2.85216 0.863549 2.48294 1.23276C2.11373 1.60197 1.90631 2.10273 1.90631 2.62488V12.7499C1.90631 12.9737 1.99521 13.1883 2.15344 13.3465C2.31167 13.5047 2.52628 13.5936 2.75006 13.5936ZM18.2188 3.53613L23.2138 8.53113H18.2188V3.53613Z" fill="#516C96"/>
</svg>
