<svg width="94" height="94" viewBox="0 0 94 94" fill="none" xmlns="http://www.w3.org/2000/svg">
<path d="M1.37695 16.1563V9.44005C1.37695 4.98699 4.98695 1.37699 9.44002 1.37699H13.0678M13.0678 1.37699L13.0678 70.4388M13.0678 1.37699L61.0124 1.37689C63.0139 1.37689 64.6365 2.99949 64.6365 5.00122V38.5662M13.0678 86.6742H9.44015C4.9869 86.6742 1.37689 83.0642 1.37689 78.611V23.1328M52.3837 86.6742H20.4542M54.5273 70.5361H61.6264M12.5456 81.6815H9.87082C7.86231 81.6815 6.2342 80.0534 6.2342 78.0449V74.1727C6.2342 72.1642 7.86231 70.5361 9.87082 70.5361H36.5352M54.7722 81.6815H20.7462M78.3863 92.6231H81.395C83.0374 92.6231 84.3687 91.2916 84.3687 89.6494V89.6479C84.3687 88.0055 83.0374 86.6743 81.395 86.6743H47.8192C46.177 86.6743 44.8455 88.0055 44.8455 89.6479V89.6494C44.8455 91.2916 46.177 92.6231 47.8192 92.6231H71.0495M61.6076 44.9805V41.5657C61.6076 39.9091 62.9504 38.5661 64.6072 38.5661C66.2637 38.5661 67.6067 39.9091 67.6067 41.5657V45.2252M67.6067 55.2617V80.3542H61.6076V55.2617M40.3461 54.8765H88.8681M50.7091 67.9755L45.5016 54.8765L40.2942 67.9755M88.9202 67.9755L83.7127 54.8765L78.5051 67.9755M20.4543 86.711L13.0678 92.6231V76.2295H20.4543V86.711ZM53.2653 32.6041H24.4391V13.4877H53.2653V32.6041ZM76.8305 86.6827H52.3837V86.6812C52.3837 83.2363 55.1765 80.4435 58.6215 80.4435H70.5927C74.0378 80.4435 76.8305 83.2363 76.8305 86.6812V86.6827ZM74.6644 54.7H54.5498V54.6976C54.5498 49.2392 58.9748 44.8142 64.4331 44.8142H64.7812C70.2394 44.8142 74.6644 49.2392 74.6644 54.6976V54.7ZM51.4124 74.2345H39.5906C37.9341 74.2345 36.5911 72.8909 36.5911 71.2334C36.5911 69.576 37.9341 68.2324 39.5906 68.2324H51.4124C53.069 68.2324 54.412 69.576 54.412 71.2334C54.412 72.8909 53.069 74.2345 51.4124 74.2345ZM89.6235 74.2345H77.8017C76.1452 74.2345 74.8022 72.8909 74.8022 71.2334C74.8022 69.576 76.1452 68.2324 77.8017 68.2324H89.6235C91.2801 68.2324 92.6231 69.576 92.6231 71.2334C92.6231 72.8909 91.2801 74.2345 89.6235 74.2345Z" stroke="#060606" stroke-width="3" stroke-miterlimit="10" stroke-linecap="round" stroke-linejoin="round"/>
</svg>
