<svg width="117" height="88" viewBox="0 0 117 88" fill="none" xmlns="http://www.w3.org/2000/svg">
<path d="M112.375 61.5156C112.137 61.5158 111.901 61.4682 111.681 61.3756C111.461 61.2829 111.261 61.1471 111.093 60.9759C110.925 60.8047 110.791 60.6014 110.7 60.3776C110.609 60.1539 110.562 59.914 110.563 59.6719V50.4531C110.563 49.9641 110.753 49.4952 111.093 49.1494C111.433 48.8036 111.894 48.6094 112.375 48.6094C112.856 48.6094 113.317 48.8036 113.657 49.1494C113.997 49.4952 114.188 49.9641 114.188 50.4531V59.6719C114.188 59.914 114.141 60.1539 114.05 60.3776C113.959 60.6014 113.825 60.8047 113.657 60.9759C113.489 61.1471 113.289 61.2829 113.069 61.3756C112.849 61.4682 112.613 61.5158 112.375 61.5156Z" fill="black"/>
<path d="M112.377 52.2969C112.04 52.2972 111.71 52.2021 111.423 52.022C111.136 51.842 110.904 51.5843 110.754 51.2778L108.941 47.5903C108.834 47.3736 108.77 47.1376 108.753 46.8957C108.735 46.6538 108.765 46.4108 108.84 46.1807C108.915 45.9505 109.034 45.7377 109.19 45.5544C109.347 45.3711 109.537 45.2209 109.75 45.1124C109.963 45.0039 110.195 44.9393 110.433 44.9223C110.671 44.9052 110.91 44.9361 111.136 45.013C111.362 45.09 111.571 45.2116 111.751 45.3708C111.931 45.53 112.078 45.7238 112.184 45.941L113.996 49.6285C114.135 49.9094 114.2 50.2217 114.186 50.5355C114.172 50.8494 114.08 51.1545 113.918 51.4218C113.755 51.6891 113.529 51.9098 113.259 52.063C112.989 52.2161 112.686 52.2966 112.377 52.2969Z" fill="black"/>
<path d="M110.561 48.6094C110.252 48.6092 109.948 48.5287 109.679 48.3755C109.409 48.2224 109.182 48.0016 109.02 47.7343C108.858 47.467 108.765 47.1619 108.751 46.8481C108.738 46.5342 108.803 46.222 108.941 45.941L110.754 42.2535C110.86 42.0363 111.007 41.8426 111.187 41.6833C111.367 41.5241 111.576 41.4025 111.802 41.3256C112.028 41.2486 112.267 41.2178 112.504 41.2348C112.742 41.2519 112.974 41.3165 113.188 41.4249C113.401 41.5334 113.591 41.6836 113.747 41.8669C113.903 42.0502 114.022 42.263 114.097 42.4932C114.172 42.7234 114.202 42.9663 114.185 43.2082C114.167 43.4501 114.103 43.6861 113.996 43.9028L112.184 47.5903C112.033 47.8968 111.801 48.1546 111.515 48.3346C111.228 48.5146 110.898 48.6097 110.561 48.6094Z" fill="black"/>
<path d="M112.377 44.9219C112.102 44.9215 111.83 44.8575 111.582 44.7346C111.335 44.6117 111.118 44.4331 110.949 44.2125C110.779 43.9918 110.661 43.7348 110.604 43.4609C110.547 43.187 110.551 42.9034 110.617 42.6316L112.43 35.2566C112.547 34.7836 112.845 34.3773 113.256 34.1268C113.668 33.8763 114.16 33.802 114.625 33.9202C115.091 34.0384 115.491 34.3395 115.738 34.7574C115.986 35.1753 116.06 35.676 115.945 36.1497L114.133 43.5247C114.035 43.9235 113.809 44.2777 113.491 44.5309C113.173 44.7841 112.781 44.9217 112.377 44.9219Z" fill="black"/>
<path d="M114.189 37.5469C113.852 37.5472 113.522 37.4521 113.235 37.2721C112.949 37.0921 112.717 36.8343 112.566 36.5278L110.754 32.8403C110.647 32.6236 110.583 32.3876 110.565 32.1457C110.548 31.9038 110.578 31.6609 110.653 31.4307C110.728 31.2005 110.847 30.9877 111.003 30.8044C111.159 30.6211 111.349 30.4709 111.562 30.3624C111.776 30.254 112.008 30.1894 112.246 30.1723C112.483 30.1553 112.722 30.1861 112.948 30.2631C113.174 30.34 113.383 30.4616 113.563 30.6208C113.743 30.7801 113.89 30.9738 113.996 31.191L115.809 34.8785C115.947 35.1595 116.012 35.4717 115.999 35.7856C115.985 36.0994 115.892 36.4045 115.73 36.6718C115.568 36.9391 115.341 37.1599 115.071 37.313C114.802 37.4662 114.498 37.5467 114.189 37.5469Z" fill="black"/>
<path d="M112.375 33.8594C112.017 33.8593 111.666 33.7511 111.368 33.5485C111.07 33.3459 110.838 33.058 110.701 32.7211C110.564 32.3843 110.528 32.0136 110.598 31.656C110.668 31.2984 110.84 30.97 111.094 30.7121L112.906 28.8683C113.074 28.6946 113.274 28.5564 113.494 28.4617C113.715 28.367 113.952 28.3177 114.191 28.3165C114.43 28.3154 114.667 28.3626 114.889 28.4553C115.11 28.5479 115.311 28.6843 115.481 28.8565C115.65 29.0287 115.784 29.2333 115.875 29.4584C115.966 29.6836 116.012 29.9249 116.011 30.1684C116.01 30.4119 115.962 30.6528 115.869 30.8771C115.776 31.1015 115.64 31.3048 115.469 31.4754L113.656 33.3192C113.488 33.4906 113.289 33.6267 113.069 33.7194C112.849 33.8121 112.613 33.8597 112.375 33.8594Z" fill="black"/>
<path d="M114.189 32.0156C113.852 32.016 113.522 31.9208 113.235 31.7408C112.949 31.5608 112.717 31.3031 112.566 30.9965L110.754 27.309C110.647 27.0924 110.583 26.8564 110.565 26.6145C110.548 26.3726 110.578 26.1296 110.653 25.8994C110.728 25.6693 110.847 25.4564 111.003 25.2731C111.159 25.0898 111.349 24.9396 111.562 24.8312C111.776 24.7227 112.008 24.6581 112.246 24.6411C112.483 24.624 112.722 24.6549 112.948 24.7318C113.174 24.8088 113.383 24.9304 113.563 25.0896C113.743 25.2488 113.89 25.4426 113.996 25.6597L115.809 29.3472C115.947 29.6282 116.012 29.9405 115.999 30.2543C115.985 30.5682 115.892 30.8732 115.73 31.1406C115.568 31.4079 115.341 31.6286 115.071 31.7818C114.802 31.9349 114.498 32.0154 114.189 32.0156Z" fill="black"/>
<path d="M105.123 30.1719C104.681 30.1713 104.255 30.0063 103.924 29.7081C103.593 29.4099 103.381 28.9989 103.327 28.5526C103.273 28.1062 103.382 27.6553 103.632 27.2847C103.882 26.9141 104.257 26.6493 104.686 26.5402L111.936 24.6964C112.167 24.637 112.407 24.6246 112.643 24.6598C112.879 24.6951 113.106 24.7773 113.31 24.9018C113.515 25.0263 113.693 25.1906 113.835 25.3853C113.977 25.58 114.08 25.8014 114.138 26.0366C114.195 26.2718 114.207 26.5163 114.172 26.7561C114.136 26.9959 114.055 27.2262 113.932 27.4339C113.809 27.6416 113.647 27.8225 113.455 27.9664C113.263 28.1103 113.045 28.2142 112.814 28.2723L105.564 30.1161C105.42 30.1531 105.272 30.1719 105.123 30.1719Z" fill="black"/>
<path d="M99.6875 35.7031C99.3291 35.7031 98.9787 35.5949 98.6807 35.3923C98.3827 35.1897 98.1505 34.9018 98.0133 34.5649C97.8762 34.228 97.8403 33.8574 97.9102 33.4998C97.9801 33.1422 98.1527 32.8137 98.4061 32.5558L103.844 27.0246C104.011 26.8509 104.211 26.7127 104.432 26.6179C104.652 26.5232 104.889 26.4739 105.128 26.4728C105.368 26.4717 105.605 26.5188 105.826 26.6115C106.048 26.7042 106.249 26.8406 106.418 27.0127C106.587 27.1849 106.721 27.3895 106.813 27.6147C106.904 27.8399 106.95 28.0812 106.949 28.3247C106.948 28.5682 106.899 28.809 106.806 29.0334C106.713 29.2577 106.577 29.461 106.406 29.6317L100.969 35.1629C100.801 35.3344 100.601 35.4704 100.381 35.5631C100.161 35.6558 99.9255 35.7034 99.6875 35.7031Z" fill="black"/>
<path d="M99.6875 35.7031C99.4895 35.7034 99.2927 35.6705 99.1052 35.6059L93.7562 33.7622C93.3008 33.6051 92.9255 33.2704 92.7127 32.8317C92.4999 32.3931 92.4671 31.8865 92.6216 31.4233C92.776 30.9601 93.105 30.5782 93.5362 30.3618C93.9674 30.1453 94.4655 30.112 94.9208 30.2691L100.27 32.1129C100.677 32.2532 101.021 32.536 101.242 32.9108C101.463 33.2856 101.546 33.7281 101.476 34.1594C101.406 34.5906 101.188 34.9826 100.861 35.2653C100.533 35.5481 100.117 35.7032 99.6875 35.7031Z" fill="black"/>
<path d="M79.7518 41.2344C79.3429 41.2349 78.9459 41.0948 78.6252 40.8368C78.3045 40.5788 78.079 40.218 77.9853 39.8132C77.8916 39.4083 77.9352 38.9831 78.109 38.6067C78.2829 38.2302 78.5768 37.9246 78.9429 37.7395L93.5314 30.3645C93.9616 30.1493 94.4581 30.1162 94.9122 30.2724C95.3664 30.4286 95.7412 30.7615 95.9546 31.1981C96.1681 31.6348 96.2028 32.1397 96.0512 32.6023C95.8996 33.065 95.574 33.4477 95.1457 33.6667L80.5572 41.0417C80.307 41.1686 80.0313 41.2345 79.7518 41.2344Z" fill="black"/>
<path d="M43.5018 41.2344C43.4016 41.2349 43.3015 41.2264 43.2028 41.2092L32.3277 39.3654C31.8536 39.2852 31.4302 39.0167 31.1507 38.6189C30.8712 38.2211 30.7585 37.7267 30.8374 37.2444C30.9162 36.7621 31.1802 36.3314 31.5713 36.0471C31.9623 35.7628 32.4483 35.6481 32.9225 35.7283L43.7975 37.5721C44.246 37.648 44.65 37.8927 44.9295 38.2575C45.209 38.6223 45.3434 39.0807 45.3062 39.5416C45.269 40.0026 45.0628 40.4325 44.7286 40.746C44.3944 41.0596 43.9565 41.2339 43.5018 41.2344Z" fill="black"/>
<path d="M32.6232 39.3906C32.3424 39.3904 32.0655 39.3238 31.8143 39.1962L28.1893 37.3524C27.9758 37.2445 27.7853 37.0948 27.6288 36.9118C27.4723 36.7289 27.3528 36.5163 27.2771 36.2864C27.2014 36.0564 27.1711 35.8135 27.1879 35.5715C27.2046 35.3296 27.2681 35.0934 27.3748 34.8765C27.4814 34.6596 27.629 34.4662 27.8092 34.3074C27.9894 34.1486 28.1987 34.0276 28.4249 33.9511C28.6512 33.8747 28.8901 33.8445 29.1278 33.8621C29.3656 33.8797 29.5977 33.9449 29.8106 34.0538L33.4356 35.8976C33.8011 36.0834 34.0941 36.3893 34.2672 36.7657C34.4403 37.1421 34.4833 37.567 34.3892 37.9714C34.2952 38.3758 34.0696 38.736 33.749 38.9936C33.4284 39.2513 33.0317 39.3912 32.6232 39.3906Z" fill="black"/>
<path d="M29 37.5469C28.7129 37.5465 28.43 37.4768 28.1746 37.3436C27.9191 37.2103 27.6985 37.0173 27.5307 36.7803C27.3629 36.5433 27.2528 36.2693 27.2094 35.9806C27.1661 35.6919 27.1907 35.3969 27.2813 35.1198L29.0938 29.5885C29.1687 29.3584 29.2875 29.1455 29.4433 28.9622C29.5992 28.7788 29.7891 28.6285 30.0022 28.5199C30.2152 28.4113 30.4472 28.3465 30.6849 28.3293C30.9226 28.312 31.1613 28.3427 31.3874 28.4194C31.6134 28.4961 31.8224 28.6174 32.0023 28.7764C32.1821 28.9354 32.3294 29.129 32.4357 29.3459C32.5419 29.5629 32.605 29.7991 32.6214 30.0409C32.6378 30.2828 32.6072 30.5255 32.5312 30.7553L30.7187 36.2865C30.5985 36.6535 30.3678 36.9727 30.0594 37.199C29.7509 37.4252 29.3803 37.5469 29 37.5469Z" fill="black"/>
<path d="M30.8125 32.0156C30.3498 32.0165 29.9044 31.8367 29.5682 31.5133L25.9432 28.0346C25.7687 27.8688 25.6281 27.6695 25.5296 27.4482C25.431 27.2268 25.3764 26.9879 25.3689 26.7451C25.3614 26.5023 25.4011 26.2603 25.4858 26.0331C25.5705 25.806 25.6985 25.5981 25.8624 25.4214C26.0263 25.2447 26.2229 25.1027 26.441 25.0035C26.659 24.9043 26.8941 24.8499 27.1329 24.8435C27.3716 24.837 27.6093 24.8786 27.8322 24.9658C28.0551 25.0531 28.2588 25.1843 28.4317 25.3518L32.0567 28.8305C32.3209 29.0839 32.5041 29.4121 32.5828 29.7727C32.6614 30.1333 32.6317 30.5095 32.4976 30.8528C32.3636 31.196 32.1312 31.4903 31.8308 31.6977C31.5303 31.905 31.1756 32.0158 30.8125 32.0156Z" fill="black"/>
<path d="M18.125 37.5469C17.7648 37.5469 17.4128 37.4377 17.1139 37.2333C16.815 37.0289 16.5828 36.7385 16.4468 36.3993C16.3108 36.06 16.2773 35.6872 16.3504 35.3285C16.4236 34.9698 16.6002 34.6414 16.8577 34.3852L25.9202 25.3753C26.2648 25.0387 26.7262 24.8542 27.2039 24.8618C27.6816 24.8695 28.137 25.0687 28.4711 25.4161C28.8051 25.7635 28.9908 26.2311 28.9878 26.7171C28.9848 27.2031 28.7932 27.6682 28.4548 28.0113L19.3923 37.0211C19.0541 37.3587 18.5989 37.5476 18.125 37.5469Z" fill="black"/>
<path d="M10.8768 41.2344C10.4683 41.2349 10.0716 41.095 9.75099 40.8374C9.43043 40.5798 9.20482 40.2196 9.11075 39.8151C9.01669 39.4107 9.0597 38.9859 9.23279 38.6094C9.40588 38.233 9.69892 37.9271 10.0644 37.7413L17.3144 34.0538C17.7442 33.8365 18.2412 33.8015 18.6965 33.9564C19.1517 34.1114 19.5279 34.4437 19.7425 34.8804C19.9572 35.3172 19.9928 35.8227 19.8416 36.2861C19.6903 36.7495 19.3645 37.133 18.9357 37.3524L11.6857 41.0399C11.4345 41.1675 11.1576 41.2341 10.8768 41.2344Z" fill="black"/>
<path d="M9.06431 48.6094C8.789 48.6091 8.51737 48.545 8.26999 48.4221C8.02261 48.2992 7.80595 48.1207 7.63643 47.9C7.46691 47.6793 7.34897 47.4223 7.29153 47.1484C7.23409 46.8745 7.23866 46.5909 7.3049 46.3191L9.1174 38.9441C9.1745 38.7087 9.27669 38.4871 9.41813 38.292C9.55957 38.0968 9.73747 37.932 9.94164 37.8069C10.1458 37.6818 10.3722 37.599 10.6079 37.563C10.8437 37.5271 11.084 37.5389 11.3152 37.5976C11.5465 37.6564 11.764 37.761 11.9555 37.9054C12.1469 38.0498 12.3084 38.2313 12.4308 38.4393C12.5532 38.6473 12.634 38.8779 12.6687 39.1178C12.7033 39.3577 12.6911 39.6021 12.6327 39.8372L10.8202 47.2122C10.7228 47.611 10.497 47.9652 10.1788 48.2184C9.86061 48.4716 9.46829 48.6092 9.06431 48.6094Z" fill="black"/>
<path d="M10.8732 55.9844C10.4692 55.9842 10.0769 55.8466 9.7587 55.5934C9.44051 55.3402 9.21474 54.986 9.11733 54.5872L7.30483 47.2122C7.24643 46.9771 7.23419 46.7327 7.26883 46.4928C7.30346 46.2529 7.38429 46.0223 7.50667 45.8143C7.62905 45.6063 7.79059 45.4248 7.98202 45.2804C8.17345 45.136 8.39102 45.0314 8.62225 44.9726C8.85349 44.9139 9.09385 44.9021 9.32955 44.9381C9.56526 44.974 9.79169 45.0568 9.99586 45.1819C10.2 45.307 10.3779 45.4718 10.5194 45.667C10.6608 45.8621 10.763 46.0837 10.8201 46.3191L12.6326 53.6941C12.6988 53.9659 12.7034 54.2495 12.646 54.5234C12.5885 54.7973 12.4706 55.0543 12.3011 55.275C12.1315 55.4957 11.9149 55.6742 11.6675 55.7971C11.4201 55.92 11.1485 55.9841 10.8732 55.9844Z" fill="black"/>
<path d="M5.4375 57.8281C5.00731 57.828 4.59119 57.6722 4.26357 57.3886C3.93594 57.105 3.71817 56.7121 3.64921 56.2802C3.58024 55.8482 3.66458 55.4054 3.88714 55.0309C4.1097 54.6564 4.45597 54.3747 4.86401 54.2361L10.3015 52.3923C10.5274 52.315 10.766 52.2838 11.0037 52.3005C11.2415 52.3172 11.4736 52.3814 11.687 52.4895C11.9003 52.5976 12.0905 52.7474 12.2468 52.9304C12.4031 53.1134 12.5224 53.3259 12.5978 53.5558C12.6732 53.7858 12.7033 54.0286 12.6864 54.2704C12.6694 54.5122 12.6057 54.7482 12.499 54.9649C12.3922 55.1817 12.2445 55.3748 12.0642 55.5334C11.884 55.6919 11.6747 55.8128 11.4485 55.8889L6.01099 57.7327C5.82613 57.7957 5.63247 57.828 5.4375 57.8281Z" fill="black"/>
<path d="M5.43569 57.8281C5.15489 57.8279 4.878 57.7613 4.62679 57.6337L1.00179 55.7899C0.572959 55.5705 0.247189 55.187 0.0959375 54.7236C-0.0553143 54.2602 -0.0196979 53.7547 0.194974 53.3179C0.409646 52.8812 0.785845 52.5489 1.24105 52.3939C1.69625 52.239 2.19329 52.274 2.62314 52.4913L6.24814 54.3351C6.61358 54.5209 6.90662 54.8268 7.07971 55.2032C7.2528 55.5796 7.29581 56.0045 7.20174 56.4089C7.10768 56.8133 6.88207 57.1735 6.5615 57.4311C6.24094 57.6888 5.84422 57.8286 5.43569 57.8281Z" fill="black"/>
<path d="M9.06431 70.9126C8.76343 70.9131 8.46716 70.8373 8.20231 70.6921C7.93745 70.5469 7.71237 70.3368 7.5474 70.0808L0.297395 58.84C0.166762 58.6376 0.0765987 58.411 0.0320525 58.1732C-0.0124937 57.9354 -0.0105501 57.6909 0.0377723 57.4538C0.0860947 57.2167 0.17985 56.9917 0.313684 56.7914C0.447518 56.5912 0.618811 56.4198 0.817782 56.2869C1.01675 56.154 1.23951 56.0623 1.47332 56.0169C1.70714 55.9716 1.94744 55.9736 2.18051 56.0228C2.41357 56.0719 2.63484 56.1673 2.83167 56.3034C3.0285 56.4396 3.19704 56.6138 3.32768 56.8162L10.5777 68.057C10.7571 68.3349 10.8592 68.657 10.8734 68.9892C10.8875 69.3213 10.8131 69.6512 10.658 69.9438C10.5029 70.2365 10.2729 70.481 9.99231 70.6516C9.71175 70.8221 9.39115 70.9123 9.06431 70.9126Z" fill="black"/>
<path d="M1.8125 59.6719C1.57444 59.672 1.33869 59.6244 1.11873 59.5318C0.898762 59.4392 0.6989 59.3034 0.530566 59.1322C0.362233 58.9609 0.228731 58.7576 0.137692 58.5339C0.0466535 58.3101 -0.000135515 58.0703 2.94804e-07 57.8281V54.1406C2.94804e-07 53.6516 0.19096 53.1827 0.530869 52.8369C0.870779 52.4911 1.3318 52.2969 1.8125 52.2969C2.29321 52.2969 2.75422 52.4911 3.09413 52.8369C3.43404 53.1827 3.625 53.6516 3.625 54.1406V57.8281C3.62514 58.0703 3.57835 58.3101 3.48731 58.5339C3.39627 58.7576 3.26277 58.9609 3.09443 59.1322C2.9261 59.3034 2.72624 59.4392 2.50627 59.5318C2.28631 59.6244 2.05056 59.672 1.8125 59.6719Z" fill="black"/>
<path d="M9.35455 70.7344C9.00254 70.7344 8.65813 70.6302 8.36339 70.4344C8.06864 70.2387 7.83632 69.9598 7.69478 69.632C7.55325 69.3041 7.50863 68.9414 7.56637 68.5882C7.62412 68.235 7.78172 67.9065 8.01995 67.6429L11.3529 63.9554C11.514 63.7771 11.708 63.6328 11.9239 63.5308C12.1398 63.4288 12.3733 63.3711 12.6112 63.3609C12.849 63.3507 13.0865 63.3882 13.31 63.4714C13.5336 63.5545 13.7389 63.6817 13.9141 63.8455C14.0894 64.0094 14.2312 64.2068 14.3315 64.4264C14.4318 64.646 14.4885 64.8835 14.4986 65.1255C14.5086 65.3674 14.4717 65.609 14.3899 65.8364C14.3082 66.0638 14.1832 66.2726 14.0221 66.4509L10.6891 70.1384C10.5196 70.3266 10.3133 70.4768 10.0836 70.5794C9.85377 70.682 9.60549 70.7348 9.35455 70.7344Z" fill="black"/>
<path d="M12.6893 67.0469C12.2808 67.0474 11.8841 66.9075 11.5635 66.6499C11.2429 66.3923 11.0173 66.0321 10.9233 65.6276C10.8292 65.2232 10.8722 64.7984 11.0453 64.4219C11.2184 64.0455 11.5114 63.7396 11.8769 63.5538L15.5019 61.7101C15.9317 61.4928 16.4287 61.4577 16.884 61.6127C17.3392 61.7676 17.7154 62.0999 17.93 62.5367C18.1447 62.9734 18.1803 63.4789 18.0291 63.9424C17.8778 64.4058 17.552 64.7893 17.1232 65.0087L13.4982 66.8524C13.247 66.98 12.9701 67.0466 12.6893 67.0469Z" fill="black"/>
<path d="M16.3143 65.2031C15.9774 65.2035 15.647 65.1083 15.3603 64.9283C15.0736 64.7483 14.8419 64.4906 14.6912 64.184L12.8787 60.4965C12.665 60.0593 12.6306 59.5537 12.7829 59.0906C12.9353 58.6276 13.2619 58.2449 13.6913 58.0265C14.1206 57.8081 14.6176 57.7719 15.0731 57.9258C15.5287 58.0796 15.9057 58.411 16.1214 58.8472L17.9339 62.5347C18.0721 62.8157 18.1374 63.1279 18.1236 63.4418C18.1098 63.7556 18.0174 64.0607 17.8551 64.3281C17.6929 64.5954 17.4662 64.8161 17.1965 64.9692C16.9268 65.1224 16.6232 65.2029 16.3143 65.2031Z" fill="black"/>
<path d="M21.75 61.5156H14.5C14.0193 61.5156 13.5583 61.3214 13.2184 60.9756C12.8785 60.6298 12.6875 60.1609 12.6875 59.6719C12.6875 59.1829 12.8785 58.7139 13.2184 58.3681C13.5583 58.0224 14.0193 57.8281 14.5 57.8281H21.75C22.2307 57.8281 22.6917 58.0224 23.0316 58.3681C23.3715 58.7139 23.5625 59.1829 23.5625 59.6719C23.5625 60.1609 23.3715 60.6298 23.0316 60.9756C22.6917 61.3214 22.2307 61.5156 21.75 61.5156Z" fill="black"/>
<path d="M27.1875 67.0469C26.9495 67.0472 26.7137 66.9996 26.4938 66.9069C26.2739 66.8142 26.0741 66.6782 25.9061 66.5067L20.4686 60.9754C20.1338 60.6286 19.9472 60.1614 19.9493 59.6754C19.9515 59.1893 20.1423 58.7238 20.4801 58.3801C20.818 58.0364 21.2756 57.8424 21.7534 57.8402C22.2312 57.838 22.6907 58.0276 23.0316 58.3681L28.4689 63.8996C28.7223 64.1575 28.8949 64.486 28.9648 64.8436C29.0347 65.2012 28.9988 65.5718 28.8617 65.9087C28.7245 66.2455 28.4923 66.5334 28.1943 66.736C27.8963 66.9386 27.5459 67.0468 27.1875 67.0469Z" fill="black"/>
<path d="M27.1875 67.0469C26.8291 67.0468 26.4787 66.9386 26.1807 66.736C25.8827 66.5334 25.6505 66.2455 25.5133 65.9087C25.3762 65.5718 25.3403 65.2012 25.4102 64.8436C25.4801 64.486 25.6527 64.1575 25.9061 63.8996L29.5311 60.2121C29.872 59.8715 30.3313 59.6817 30.8091 59.6839C31.2869 59.6861 31.7445 59.8802 32.0824 60.2239C32.4202 60.5675 32.611 61.0331 32.6132 61.5191C32.6153 62.0051 32.4287 62.4724 32.0939 62.8192L28.4689 66.5067C28.3009 66.6782 28.1011 66.8142 27.8812 66.9069C27.6613 66.9996 27.4255 67.0472 27.1875 67.0469Z" fill="black"/>
<path d="M38.0643 65.2031C37.9157 65.2031 37.7677 65.1843 37.6236 65.1473L30.3736 63.3036C29.9086 63.184 29.5092 62.8818 29.2629 62.4632C29.0167 62.0445 28.9436 61.5437 29.0599 61.0703C29.1761 60.597 29.472 60.1899 29.8829 59.9382C30.2937 59.6865 30.7859 59.6108 31.2515 59.7277L38.5015 61.5714C38.9303 61.6805 39.3052 61.9453 39.5555 62.3159C39.8058 62.6866 39.9143 63.1375 39.8606 63.5838C39.8068 64.0301 39.5946 64.4411 39.2638 64.7393C38.9329 65.0376 38.5064 65.2025 38.0643 65.2031Z" fill="black"/>
<path d="M39.8768 68.8906C39.5399 68.891 39.2095 68.7958 38.9228 68.6158C38.6361 68.4358 38.4044 68.178 38.2537 67.8715L36.4412 64.184C36.2275 63.7468 36.1931 63.2412 36.3454 62.7781C36.4978 62.3151 36.8244 61.9324 37.2538 61.714C37.6831 61.4956 38.1801 61.4594 38.6356 61.6133C39.0912 61.7671 39.4682 62.0985 39.6839 62.5347L41.4964 66.2222C41.6346 66.5032 41.6998 66.8154 41.6861 67.1293C41.6723 67.4431 41.5799 67.7482 41.4176 68.0156C41.2554 68.2829 41.0287 68.5036 40.759 68.6567C40.4893 68.8099 40.1857 68.8904 39.8768 68.8906Z" fill="black"/>
<path d="M43.5 68.8906H39.875C39.3943 68.8906 38.9333 68.6964 38.5934 68.3506C38.2535 68.0048 38.0625 67.5359 38.0625 67.0469C38.0625 66.5579 38.2535 66.0889 38.5934 65.7431C38.9333 65.3974 39.3943 65.2031 39.875 65.2031H43.5C43.9807 65.2031 44.4417 65.3974 44.7816 65.7431C45.1215 66.0889 45.3125 66.5579 45.3125 67.0469C45.3125 67.5359 45.1215 68.0048 44.7816 68.3506C44.4417 68.6964 43.9807 68.8906 43.5 68.8906Z" fill="black"/>
<path d="M45.3125 74.4219C44.9322 74.4219 44.5616 74.3001 44.2531 74.0739C43.9447 73.8477 43.714 73.5285 43.5938 73.1615L41.7813 67.6302C41.7053 67.4005 41.6747 67.1577 41.6911 66.9159C41.7075 66.6741 41.7706 66.4379 41.8768 66.2209C41.9831 66.0039 42.1304 65.8104 42.3102 65.6514C42.4901 65.4924 42.6991 65.3711 42.9251 65.2943C43.1512 65.2176 43.3899 65.187 43.6276 65.2043C43.8653 65.2215 44.0973 65.2863 44.3103 65.3949C44.5234 65.5035 44.7133 65.6538 44.8692 65.8372C45.025 66.0205 45.1438 66.2333 45.2187 66.4635L47.0312 71.9947C47.1218 72.2718 47.1464 72.5669 47.1031 72.8555C47.0597 73.1442 46.9496 73.4183 46.7818 73.6553C46.614 73.8922 46.3934 74.0853 46.1379 74.2186C45.8825 74.3518 45.5996 74.4215 45.3125 74.4219Z" fill="black"/>
<path d="M50.7482 78.1094C50.3909 78.1091 50.0418 78.0013 49.7446 77.7996L44.3071 74.1121C43.912 73.8388 43.6389 73.4178 43.5474 72.9408C43.4558 72.4637 43.5532 71.9692 43.8182 71.5647C44.0833 71.1603 44.4946 70.8787 44.9627 70.7812C45.4309 70.6837 45.9179 70.7782 46.3179 71.0441L51.7554 74.7316C52.0791 74.9512 52.3248 75.271 52.4561 75.6436C52.5874 76.0163 52.5973 76.422 52.4843 76.8008C52.3714 77.1796 52.1416 77.5114 51.8289 77.747C51.5162 77.9827 51.1373 78.1097 50.7482 78.1094Z" fill="black"/>
<path d="M50.75 78.1094C50.3198 78.1093 49.9037 77.9535 49.5761 77.6699C49.2484 77.3863 49.0307 76.9934 48.9617 76.5614C48.8927 76.1295 48.9771 75.6867 49.1996 75.3122C49.4222 74.9377 49.7685 74.6559 50.1765 74.5173L55.614 72.6736C56.0695 72.5202 56.5662 72.5569 56.9951 72.7755C57.424 72.9942 57.7502 73.3769 57.9021 73.8399C58.0539 74.3029 58.0191 74.8082 57.8052 75.245C57.5913 75.6819 57.2157 76.0146 56.761 76.1702L51.3235 78.014C51.1386 78.077 50.945 78.1092 50.75 78.1094Z" fill="black"/>
<path d="M59.8107 78.1094C59.5299 78.1091 59.253 78.0425 59.0018 77.9149L55.3768 76.0712C55.1633 75.9632 54.9728 75.8135 54.8163 75.6306C54.6598 75.4476 54.5403 75.2351 54.4646 75.0051C54.3889 74.7751 54.3586 74.5322 54.3754 74.2903C54.3921 74.0484 54.4557 73.8122 54.5623 73.5953C54.6689 73.3784 54.8165 73.185 54.9967 73.0262C55.1769 72.8674 55.3862 72.7463 55.6124 72.6699C55.8387 72.5935 56.0776 72.5632 56.3153 72.5808C56.5531 72.5985 56.7852 72.6636 56.9981 72.7726L60.6231 74.6163C60.9886 74.8021 61.2816 75.108 61.4547 75.4844C61.6278 75.8609 61.6708 76.2857 61.5767 76.6902C61.4827 77.0946 61.2571 77.4548 60.9365 77.7124C60.6159 77.97 60.2192 78.1099 59.8107 78.1094Z" fill="black"/>
<path d="M59.8125 78.1094C59.4541 78.1093 59.1037 78.0011 58.8057 77.7985C58.5077 77.5959 58.2755 77.308 58.1383 76.9712C58.0012 76.6343 57.9653 76.2637 58.0352 75.9061C58.1051 75.5485 58.2777 75.22 58.5311 74.9621L60.3436 73.1184C60.6845 72.7778 61.1438 72.588 61.6216 72.5902C62.0994 72.5924 62.557 72.7864 62.8949 73.1301C63.2328 73.4738 63.4235 73.9393 63.4257 74.4254C63.4278 74.9114 63.2412 75.3786 62.9064 75.7254L61.0939 77.5692C60.9259 77.7407 60.7261 77.8767 60.5062 77.9694C60.2863 78.0621 60.0506 78.1097 59.8125 78.1094Z" fill="black"/>
<path d="M72.5 79.9531C72.305 79.953 72.1114 79.9207 71.9265 79.8577L61.0515 76.1702C60.8253 76.094 60.6161 75.9732 60.4358 75.8146C60.2555 75.6561 60.1078 75.4629 60.001 75.2462C59.8943 75.0295 59.8306 74.7935 59.8136 74.5517C59.7967 74.3099 59.8268 74.067 59.9022 73.8371C59.9776 73.6072 60.0969 73.3946 60.2532 73.2116C60.4095 73.0286 60.5997 72.8788 60.813 72.7707C61.0264 72.6626 61.2585 72.5984 61.4963 72.5818C61.734 72.5651 61.9726 72.5963 62.1985 72.6736L73.0735 76.3611C73.4815 76.4997 73.8278 76.7814 74.0504 77.1559C74.2729 77.5304 74.3573 77.9732 74.2883 78.4052C74.2193 78.8371 74.0016 79.23 73.6739 79.5136C73.3463 79.7972 72.9302 79.953 72.5 79.9531Z" fill="black"/>
<path d="M72.5018 79.9531C72.0933 79.9536 71.6966 79.8138 71.376 79.5561C71.0554 79.2985 70.8298 78.9383 70.7358 78.5339C70.6417 78.1295 70.6847 77.7046 70.8578 77.3282C71.0309 76.9518 71.3239 76.6459 71.6894 76.4601L75.3144 74.6163C75.7442 74.399 76.2413 74.364 76.6965 74.5189C77.1517 74.6739 77.5279 75.0062 77.7425 75.4429C77.9572 75.8797 77.9928 76.3852 77.8416 76.8486C77.6903 77.312 77.3645 77.6955 76.9357 77.9149L73.3107 79.7587C73.0595 79.8863 72.7826 79.9529 72.5018 79.9531Z" fill="black"/>
<path d="M79.75 78.1094H76.125C75.6443 78.1094 75.1833 77.9151 74.8434 77.5694C74.5035 77.2236 74.3125 76.7546 74.3125 76.2656C74.3125 75.7766 74.5035 75.3077 74.8434 74.9619C75.1833 74.6161 75.6443 74.4219 76.125 74.4219H79.75C80.2307 74.4219 80.6917 74.6161 81.0316 74.9619C81.3715 75.3077 81.5625 75.7766 81.5625 76.2656C81.5625 76.7546 81.3715 77.2236 81.0316 77.5694C80.6917 77.9151 80.2307 78.1094 79.75 78.1094Z" fill="black"/>
<path d="M79.75 78.1094C79.4629 78.109 79.18 78.0393 78.9246 77.9061C78.6691 77.7728 78.4484 77.5797 78.2806 77.3428C78.1129 77.1058 78.0028 76.8317 77.9594 76.543C77.9161 76.2544 77.9407 75.9593 78.0313 75.6822L79.8438 70.151C79.9187 69.9208 80.0375 69.708 80.1933 69.5247C80.3492 69.3413 80.5391 69.191 80.7521 69.0824C80.9652 68.9738 81.1972 68.909 81.4349 68.8918C81.6726 68.8745 81.9113 68.9051 82.1374 68.9818C82.3634 69.0586 82.5724 69.1799 82.7522 69.3389C82.9321 69.4979 83.0794 69.6914 83.1857 69.9084C83.2919 70.1254 83.355 70.3616 83.3714 70.6034C83.3878 70.8452 83.3571 71.088 83.2812 71.3177L81.4687 76.849C81.3485 77.216 81.1178 77.5352 80.8094 77.7614C80.5009 77.9876 80.1303 78.1094 79.75 78.1094Z" fill="black"/>
<path d="M85.1875 72.5781H81.5625C81.0818 72.5781 80.6208 72.3839 80.2809 72.0381C79.941 71.6923 79.75 71.2234 79.75 70.7344C79.75 70.2454 79.941 69.7764 80.2809 69.4306C80.6208 69.0849 81.0818 68.8906 81.5625 68.8906H85.1875C85.6682 68.8906 86.1292 69.0849 86.4691 69.4306C86.809 69.7764 87 70.2454 87 70.7344C87 71.2234 86.809 71.6923 86.4691 72.0381C86.1292 72.3839 85.6682 72.5781 85.1875 72.5781Z" fill="black"/>
<path d="M88.8125 76.2656C88.5745 76.2659 88.3387 76.2183 88.1188 76.1256C87.8989 76.0329 87.6991 75.8969 87.5311 75.7254L83.9061 72.0379C83.5713 71.6911 83.3847 71.2239 83.3868 70.7379C83.389 70.2518 83.5797 69.7863 83.9176 69.4426C84.2555 69.0989 84.7131 68.9049 85.1909 68.9027C85.6687 68.9005 86.1282 69.0901 86.4691 69.4306L90.0939 73.1184C90.3473 73.3762 90.5199 73.7047 90.5898 74.0623C90.6597 74.4199 90.6238 74.7906 90.4867 75.1274C90.3495 75.4643 90.1173 75.7522 89.8193 75.9548C89.5213 76.1574 89.1709 76.2656 88.8125 76.2656Z" fill="black"/>
<path d="M92.4357 78.1094C92.1549 78.1091 91.878 78.0425 91.6268 77.9149L88.0018 76.0712C87.573 75.8518 87.2472 75.4683 87.0959 75.0049C86.9447 74.5414 86.9803 74.0359 87.195 73.5992C87.4096 73.1624 87.7858 72.8301 88.241 72.6752C88.6962 72.5202 89.1933 72.5553 89.6231 72.7726L93.2481 74.6163C93.6136 74.8021 93.9066 75.108 94.0797 75.4844C94.2528 75.8609 94.2958 76.2857 94.2017 76.6901C94.1077 77.0946 93.8821 77.4548 93.5615 77.7124C93.2409 77.97 92.8442 78.1099 92.4357 78.1094Z" fill="black"/>
<path d="M92.4393 78.1094C92.0308 78.1099 91.6341 77.97 91.3135 77.7124C90.9929 77.4548 90.7673 77.0946 90.6733 76.6901C90.5792 76.2857 90.6222 75.8609 90.7953 75.4844C90.9684 75.108 91.2614 74.8021 91.6269 74.6163L95.2519 72.7726C95.6817 72.5553 96.1788 72.5202 96.634 72.6752C97.0892 72.8301 97.4654 73.1624 97.68 73.5992C97.8947 74.0359 97.9303 74.5414 97.7791 75.0049C97.6278 75.4683 97.302 75.8518 96.8732 76.0712L93.2482 77.9149C92.997 78.0425 92.7201 78.1091 92.4393 78.1094Z" fill="black"/>
<path d="M96.0625 79.9531C95.8244 79.9533 95.5887 79.9057 95.3687 79.8131C95.1488 79.7204 94.9489 79.5846 94.7806 79.4134C94.6122 79.2422 94.4787 79.0389 94.3877 78.8151C94.2967 78.5914 94.2499 78.3515 94.25 78.1094V74.4219C94.25 73.9329 94.441 73.4639 94.7809 73.1181C95.1208 72.7724 95.5818 72.5781 96.0625 72.5781C96.5432 72.5781 97.0042 72.7724 97.3441 73.1181C97.684 73.4639 97.875 73.9329 97.875 74.4219V78.1094C97.8751 78.3515 97.8283 78.5914 97.7373 78.8151C97.6463 79.0389 97.5128 79.2422 97.3444 79.4134C97.1761 79.5846 96.9762 79.7204 96.7563 79.8131C96.5363 79.9057 96.3006 79.9533 96.0625 79.9531Z" fill="black"/>
<path d="M94.2482 83.7307C93.9732 83.7311 93.7019 83.667 93.4552 83.5434C93.0234 83.329 92.6929 82.9488 92.5366 82.4866C92.3802 82.0243 92.4108 81.5178 92.6215 81.0785L94.434 77.3009C94.5383 77.0834 94.6838 76.8889 94.8621 76.7286C95.0403 76.5682 95.2479 76.4451 95.4729 76.3664C95.6979 76.2877 95.936 76.2548 96.1735 76.2696C96.411 76.2845 96.6433 76.3467 96.8572 76.4529C97.071 76.5591 97.2622 76.7071 97.4198 76.8884C97.5775 77.0697 97.6985 77.2809 97.7759 77.5098C97.8533 77.7387 97.8856 77.9808 97.871 78.2224C97.8564 78.464 97.7952 78.7004 97.6908 78.9179L95.8783 82.6954C95.7295 83.0062 95.4977 83.2681 95.2094 83.4512C94.9211 83.6342 94.588 83.7311 94.2482 83.7307Z" fill="black"/>
<path d="M101.498 87.3281C101.223 87.3282 100.952 87.2641 100.705 87.1409L93.4552 83.5434C93.2414 83.4372 93.0502 83.2893 92.8925 83.1079C92.7349 82.9266 92.614 82.7155 92.5366 82.4866C92.4591 82.2577 92.4268 82.0155 92.4414 81.7739C92.456 81.5323 92.5171 81.296 92.6215 81.0785C92.7258 80.8609 92.8714 80.6664 93.0497 80.5061C93.2279 80.3457 93.4355 80.2226 93.6605 80.1439C93.8855 80.0652 94.1236 80.0323 94.3611 80.0471C94.5986 80.062 94.8309 80.1242 95.0448 80.2304L102.295 83.8279C102.663 84.0108 102.96 84.3153 103.136 84.6917C103.312 85.0681 103.358 85.4942 103.265 85.9004C103.173 86.3065 102.948 86.6688 102.627 86.9281C102.306 87.1875 101.908 87.3285 101.498 87.3281Z" fill="black"/>
<path d="M101.5 87.2093C101.262 87.2094 101.026 87.1618 100.806 87.0692C100.586 86.9766 100.386 86.8408 100.218 86.6696C100.05 86.4983 99.9162 86.295 99.8252 86.0713C99.7342 85.8475 99.6874 85.6077 99.6875 85.3655V70.7344C99.6875 70.2454 99.8785 69.7764 100.218 69.4306C100.558 69.0849 101.019 68.8906 101.5 68.8906C101.981 68.8906 102.442 69.0849 102.782 69.4306C103.122 69.7764 103.313 70.2454 103.313 70.7344V85.3655C103.313 85.6077 103.266 85.8475 103.175 86.0713C103.084 86.295 102.95 86.4983 102.782 86.6696C102.614 86.8408 102.414 86.9766 102.194 87.0692C101.974 87.1618 101.738 87.2094 101.5 87.2093Z" fill="black"/>
<path d="M101.502 72.5781C101.165 72.5785 100.835 72.4833 100.548 72.3033C100.261 72.1233 100.029 71.8655 99.8787 71.559L96.2537 64.184C96.1466 63.9674 96.0825 63.7313 96.0652 63.4894C96.0479 63.2476 96.0776 63.0046 96.1527 62.7744C96.2279 62.5442 96.3469 62.3314 96.503 62.1481C96.6591 61.9648 96.8492 61.8146 97.0624 61.7062C97.2757 61.5977 97.5079 61.5331 97.7457 61.516C97.9835 61.499 98.2223 61.5298 98.4484 61.6068C98.6745 61.6838 98.8834 61.8053 99.0632 61.9646C99.2431 62.1238 99.3903 62.3175 99.4964 62.5347L103.121 69.9097C103.26 70.1907 103.325 70.5029 103.311 70.8168C103.297 71.1306 103.205 71.4357 103.043 71.703C102.88 71.9704 102.654 72.1911 102.384 72.3442C102.114 72.4974 101.811 72.5779 101.502 72.5781Z" fill="black"/>
<path d="M97.875 65.2031H94.25C93.7693 65.2031 93.3083 65.0089 92.9684 64.6631C92.6285 64.3173 92.4375 63.8484 92.4375 63.3594C92.4375 62.8704 92.6285 62.4014 92.9684 62.0556C93.3083 61.7099 93.7693 61.5156 94.25 61.5156H97.875C98.3557 61.5156 98.8167 61.7099 99.1566 62.0556C99.4965 62.4014 99.6875 62.8704 99.6875 63.3594C99.6875 63.8484 99.4965 64.3173 99.1566 64.6631C98.8167 65.0089 98.3557 65.2031 97.875 65.2031Z" fill="black"/>
<path d="M94.2518 65.2031C93.9765 65.2028 93.7049 65.1388 93.4575 65.0159C93.2101 64.893 92.9934 64.7144 92.8239 64.4938C92.6544 64.2731 92.5365 64.0161 92.479 63.7422C92.4216 63.4683 92.4262 63.1847 92.4924 62.9129L94.3049 55.5379C94.4224 55.0649 94.7195 54.6586 95.1311 54.4081C95.5426 54.1576 96.035 54.0833 96.5003 54.2015C96.9656 54.3197 97.3658 54.6208 97.6132 55.0387C97.8606 55.4566 97.9351 55.9573 97.8202 56.4309L96.0077 63.8059C95.9103 64.2048 95.6845 64.559 95.3663 64.8122C95.0481 65.0654 94.6558 65.203 94.2518 65.2031Z" fill="black"/>
<path d="M96.0643 57.8281C95.6558 57.8286 95.2591 57.6888 94.9385 57.4311C94.6179 57.1735 94.3923 56.8133 94.2983 56.4089C94.2042 56.0045 94.2472 55.5796 94.4203 55.2032C94.5934 54.8268 94.8864 54.5209 95.2519 54.3351L102.502 50.6476C102.932 50.4303 103.429 50.3952 103.884 50.5502C104.339 50.7051 104.715 51.0374 104.93 51.4742C105.145 51.9109 105.18 52.4164 105.029 52.8799C104.878 53.3433 104.552 53.7268 104.123 53.9462L96.8732 57.6337C96.622 57.7613 96.3451 57.8279 96.0643 57.8281Z" fill="black"/>
<path d="M103.312 54.1406C103.025 54.1403 102.743 54.0706 102.487 53.9373C102.232 53.804 102.011 53.611 101.843 53.374C101.675 53.1371 101.565 52.863 101.522 52.5743C101.479 52.2856 101.503 51.9906 101.594 51.7135L103.406 46.1822C103.481 45.9521 103.6 45.7393 103.756 45.5559C103.912 45.3725 104.102 45.2222 104.315 45.1136C104.528 45.005 104.76 44.9403 104.997 44.923C105.235 44.9058 105.474 44.9364 105.7 45.0131C105.926 45.0898 106.135 45.2112 106.315 45.3702C106.495 45.5291 106.642 45.7227 106.748 45.9397C106.854 46.1566 106.918 46.3928 106.934 46.6347C106.95 46.8765 106.92 47.1192 106.844 47.349L105.031 52.8802C104.911 53.2472 104.68 53.5665 104.372 53.7927C104.063 54.0189 103.693 54.1406 103.312 54.1406Z" fill="black"/>
<path d="M112.375 61.5156C112.137 61.5158 111.901 61.4682 111.681 61.3756C111.461 61.2829 111.261 61.1471 111.093 60.9759L105.656 55.4442C105.321 55.0974 105.135 54.6301 105.137 54.1441C105.139 53.6581 105.33 53.1925 105.668 52.8489C106.005 52.5052 106.463 52.3111 106.941 52.3089C107.419 52.3067 107.878 52.4965 108.219 52.8371L113.656 58.3684C113.91 58.6262 114.082 58.9547 114.152 59.3123C114.222 59.6699 114.187 60.0408 114.05 60.3776C113.913 60.7145 113.68 61.0022 113.382 61.2048C113.084 61.4074 112.733 61.5155 112.375 61.5156Z" fill="black"/>
<path d="M106.936 55.9844C106.532 55.9842 106.139 55.8466 105.821 55.5934C105.503 55.3402 105.277 54.986 105.18 54.5872L103.367 47.2122C103.252 46.7385 103.327 46.2378 103.574 45.8199C103.822 45.402 104.222 45.1009 104.687 44.9827C105.153 44.8645 105.645 44.9388 106.056 45.1893C106.468 45.4398 106.765 45.8461 106.883 46.3191L108.695 53.6941C108.761 53.9659 108.766 54.2495 108.708 54.5234C108.651 54.7973 108.533 55.0543 108.364 55.275C108.194 55.4956 107.977 55.6742 107.73 55.7971C107.483 55.92 107.211 55.984 106.936 55.9844Z" fill="black"/>
<path d="M61.625 65.2031C61.2008 65.2035 60.7899 65.0525 60.4639 64.7764C59.5505 64.0004 38.0625 45.5449 38.0625 24.6406C38.0625 18.2837 40.545 12.1872 44.9638 7.69216C49.3826 3.19715 55.3758 0.671875 61.625 0.671875C67.8742 0.671875 73.8674 3.19715 78.2862 7.69216C82.705 12.1872 85.1875 18.2837 85.1875 24.6406C85.1875 45.5449 63.6995 64.0004 62.7861 64.7764C62.4601 65.0525 62.0492 65.2035 61.625 65.2031ZM61.625 4.35938C56.3391 4.36545 51.2714 6.50417 47.5337 10.3063C43.7959 14.1085 41.6935 19.2636 41.6875 24.6406C41.6875 41.1858 57.2035 56.7874 61.625 60.8962C66.0447 56.7838 81.5625 41.1624 81.5625 24.6406C81.5565 19.2636 79.4541 14.1085 75.7163 10.3063C71.9786 6.50417 66.9109 4.36545 61.625 4.35938Z" fill="black"/>
<path d="M61.625 37.5469C59.1157 37.5469 56.6627 36.7899 54.5762 35.3718C52.4898 33.9536 50.8636 31.9379 49.9033 29.5796C48.943 27.2213 48.6917 24.6263 49.1813 22.1227C49.6708 19.6192 50.8792 17.3195 52.6536 15.5145C54.428 13.7096 56.6887 12.4804 59.1498 11.9824C61.6109 11.4844 64.162 11.74 66.4803 12.7168C68.7986 13.6937 70.7801 15.3479 72.1743 17.4703C73.5684 19.5927 74.3125 22.088 74.3125 24.6406C74.3084 28.0623 72.9704 31.3427 70.5919 33.7622C68.2134 36.1816 64.9887 37.5427 61.625 37.5469ZM61.625 15.4219C59.8326 15.4219 58.0805 15.9626 56.5901 16.9755C55.0998 17.9885 53.9383 19.4283 53.2523 21.1128C52.5664 22.7973 52.387 24.6509 52.7366 26.4391C53.0863 28.2274 53.9494 29.87 55.2168 31.1593C56.4843 32.4485 58.099 33.3265 59.857 33.6822C61.6149 34.038 63.4371 33.8554 65.0931 33.1576C66.749 32.4599 68.1644 31.2783 69.1602 29.7623C70.156 28.2463 70.6875 26.4639 70.6875 24.6406C70.6847 22.1965 69.729 19.8534 68.03 18.1252C66.3311 16.3969 64.0277 15.4247 61.625 15.4219Z" fill="black"/>
</svg>
