<svg width="93" height="94" viewBox="0 0 93 94" fill="none" xmlns="http://www.w3.org/2000/svg">
<path d="M82.5838 21.4355C83.8803 18.7469 84.7682 15.9587 84.7682 13.3618C84.7682 5.99415 78.8446 0 71.5635 0C66.8496 0 62.7073 2.51432 60.3704 6.28533C57.809 5.52691 55.1664 4.99963 52.5038 4.72222C51.7442 4.64235 51.0625 5.20286 50.9841 5.97304C50.9058 6.74303 51.4593 7.43151 52.2203 7.51064C54.5582 7.75408 56.8804 8.20132 59.1383 8.84114C58.6349 10.2539 58.3591 11.7757 58.3591 13.3618C58.3591 22.804 70.0851 34.7782 70.5841 35.2832C71.1177 35.823 72.0096 35.823 72.543 35.2832C72.8582 34.9641 77.65 30.0712 81.1392 24.1306C83.9864 27.9736 86.1235 32.1967 87.5077 36.6762L67.4172 38.8161C67.0586 38.8545 66.7288 39.0326 66.498 39.3129C66.2899 39.5656 61.3756 45.5419 58.8589 49.3695C56.0124 49.5611 53.409 50.6665 51.3369 52.4022L49.2905 40.0407C49.236 39.7115 49.0673 39.4132 48.8149 39.1986L38.1034 30.1037C37.8991 29.9302 37.6495 29.8202 37.3848 29.7868L26.4095 28.3985C25.0609 24.4965 21.9727 21.4169 18.0891 20.1136C25.4669 12.3623 35.2986 7.83817 45.9572 7.33457C46.7214 7.29859 47.3117 6.64242 47.2762 5.86931C47.2406 5.0962 46.5922 4.49493 45.8282 4.53458C39.8096 4.81879 34.0223 6.30755 28.6266 8.95882C23.3968 11.5288 18.7769 15.0666 14.895 19.474C14.5804 19.4512 14.2638 19.4354 13.9435 19.4354C6.66259 19.4354 0.738953 25.4296 0.738953 32.7972C0.738953 36.1259 2.19695 39.769 4.106 43.1137C3.83294 45.1314 3.69378 47.1928 3.69378 49.2426C3.69378 61.1979 8.29476 72.4373 16.6487 80.8909C25.0026 89.3442 36.11 94 47.9244 94C59.7391 94 70.8463 89.3442 79.2004 80.8909C87.5545 72.4373 92.1553 61.1977 92.1553 49.2426C92.1553 39.0267 88.8454 29.415 82.5838 21.4355ZM71.5635 32.256C68.7968 29.2184 61.129 20.1843 61.129 13.3618C61.129 7.53983 65.8098 2.80311 71.5635 2.80311C77.3171 2.80311 81.9979 7.53964 81.9979 13.3618C81.9979 20.1845 74.3301 29.2186 71.5635 32.256ZM59.744 52.1392C65.4974 52.1392 70.1784 56.8757 70.1784 62.6978C70.1784 69.5203 62.5106 78.5544 59.744 81.592C56.9773 78.5544 49.3095 69.5203 49.3095 62.6978C49.3095 56.8759 53.9905 52.1392 59.744 52.1392ZM3.5089 32.7972C3.5089 26.9752 8.18971 22.2385 13.9433 22.2385C19.697 22.2385 24.3778 26.9752 24.3778 32.7972C24.3778 39.6197 16.7102 48.6538 13.9433 51.6914C11.1765 48.6538 3.5089 39.6197 3.5089 32.7972ZM6.46373 49.2426C6.46373 48.4673 6.48569 47.6901 6.5276 46.9146C9.56444 51.25 12.7105 54.4623 12.964 54.7186C13.4972 55.2584 14.3897 55.2584 14.9227 54.7186C15.1833 54.455 18.5035 51.0649 21.6178 46.5419L27.0213 58.8444C27.1369 59.1078 27.3301 59.3287 27.5745 59.477L35.5508 64.3199L31.9688 75.3041L22.6897 82.5067C12.8302 74.8297 6.46373 62.7751 6.46373 49.2426ZM25.0438 84.2117L33.9929 77.2652C34.2133 77.0941 34.3779 76.8595 34.4651 76.5924L38.5282 64.1337C38.7312 63.5113 38.4808 62.8298 37.9256 62.4927L29.3748 57.3011L23.418 43.7385C25.5025 40.2269 27.1481 36.3343 27.1481 32.7972C27.1481 32.293 27.1178 31.7961 27.0639 31.3062L36.6358 32.517L46.643 41.0139L48.9574 55.0058C47.4368 57.1825 46.5396 59.8352 46.5396 62.698C46.5396 64.5611 46.9973 66.5228 47.7341 68.4755L43.8344 79.6813L30.6017 87.3546C28.664 86.449 26.8068 85.3968 25.0438 84.2117ZM47.9244 91.1969C42.9836 91.1969 38.2428 90.3162 33.8448 88.7044L45.6583 81.8542C45.9466 81.6869 46.1658 81.4207 46.2761 81.1036L49.406 72.1101C52.9119 78.6455 58.4258 84.2763 58.7646 84.6193C59.2982 85.159 60.1901 85.159 60.7235 84.6193C61.1123 84.2258 68.3149 76.8711 71.4785 69.1756L82.8022 71.9038C75.4177 83.5012 62.5428 91.1969 47.9244 91.1969ZM72.3932 66.5145C72.7451 65.2198 72.9487 63.9369 72.9487 62.698C72.9487 56.1452 68.2615 50.6829 62.1026 49.5538C64.2294 46.5454 67.2439 42.8043 68.2693 41.5441L88.2534 39.4156C89.0023 42.5936 89.3852 45.883 89.3852 49.2424C89.3852 56.5353 87.5353 63.3988 84.2872 69.3801L72.3932 66.5145Z" fill="black"/>
<path d="M59.744 55.3161C55.7216 55.3161 52.449 58.6275 52.449 62.6978C52.449 66.7681 55.7216 70.0796 59.744 70.0796C63.7663 70.0796 67.0389 66.7681 67.0389 62.6978C67.0389 58.6275 63.7663 55.3161 59.744 55.3161ZM59.744 67.2763C57.2489 67.2763 55.2194 65.2222 55.2194 62.6978C55.2194 60.1734 57.2491 58.1194 59.744 58.1194C62.239 58.1194 64.2686 60.1734 64.2686 62.6978C64.2686 65.2222 62.239 67.2763 59.744 67.2763Z" fill="black"/>
<path d="M71.5635 5.9802C67.5411 5.9802 64.2686 9.29168 64.2686 13.362C64.2686 17.4322 67.5411 20.7437 71.5635 20.7437C75.5858 20.7437 78.8584 17.4322 78.8584 13.362C78.8584 9.29168 75.5858 5.9802 71.5635 5.9802ZM71.5635 17.9404C69.0684 17.9404 67.0389 15.8864 67.0389 13.362C67.0389 10.8374 69.0686 8.78349 71.5635 8.78349C74.0585 8.78349 76.0881 10.8375 76.0881 13.362C76.0882 15.8864 74.0585 17.9404 71.5635 17.9404Z" fill="black"/>
<path d="M13.9433 25.4154C9.92095 25.4154 6.64843 28.7269 6.64843 32.7972C6.64843 36.8675 9.92095 40.1789 13.9433 40.1789C17.9657 40.1789 21.2383 36.8675 21.2383 32.7972C21.2383 28.7269 17.9657 25.4154 13.9433 25.4154ZM13.9433 37.3758C11.4484 37.3758 9.41875 35.3218 9.41875 32.7974C9.41875 30.2728 11.4486 28.2189 13.9433 28.2189C16.4382 28.2189 18.4679 30.273 18.4679 32.7974C18.4679 35.3218 16.4382 37.3758 13.9433 37.3758Z" fill="black"/>
</svg>
