<svg version="1.0" xmlns="http://www.w3.org/2000/svg" width="1365.333" height="1365.333" viewBox="0 0 1024 1024"><path d="M240.5 246.2c-11.2 2.3-19.8 6.9-27.1 14.7-3 3.1-11.5 15.6-11.8 17.4-.1.6-1.8 4.6-3.8 8.7-3.2 6.9-4.9 10.7-5.3 12-.1.3-.9 2.3-1.9 4.5-1 2.2-4.5 10.5-7.8 18.5s-6.8 16.3-7.8 18.5c-6.8 15.8-9 21.2-9 22.2 0 .7-.5 1.3-1.2 1.3-.6 0-.9.3-.6.6.6.5-.3 2.8-5.8 15.1-.8 1.7-1.4 3.4-1.4 3.7 0 .3-1.2 3.1-2.7 6.3-1.5 3.2-2.8 6.2-2.9 6.8-.5 1.8-7.6 18.9-8.5 20.5-.5.8-1.2 2.2-1.5 3-.8 2-4.1 10.1-5.6 13.7-.6 1.5-1.2 3-1.3 3.3-.1.3-.6 1.6-1.2 3-6.9 16.4-22.3 53.1-24.5 58.5-1.6 3.8-3.6 8.6-4.4 10.5-1.9 4.4-1.7 3.9-10.9 26-4.3 10.2-10.2 24.3-13.2 31.5-3 7.1-5.8 13.9-6.3 15-.5 1.1-4.2 9.6-8.1 19-3.9 9.3-7.9 18.8-8.8 21-1 2.2-2.6 6-3.7 8.5-1 2.4-1.9 4.7-2 5 0 .3-.6 1.6-1.2 3-18.3 42-22.4 51.7-22.5 52.7 0 .7-.4 1.3-.9 1.3-.4 0-.8.7-.8 1.5s-.9 3.4-1.9 5.7c-3.1 7.1-4.4 10.2-4.7 11.5-.1.6-.7 2.7-1.3 4.5-4.5 14.1-3.5 28.4 2.6 36.5 4.3 5.9 14.5 11.3 23.8 12.8 1.1.2 3.6.7 5.5 1.1 1.9.4 53.9.8 115.5.9 122.6.2 115.1.5 124.3-5.7 5.7-3.9 7.8-6.3 10.6-12.2 4.9-10.2 1.9-25.9-6.5-34.7-7.2-7.5-14.7-10.6-28.4-11.5-4.5-.3-39.6-.7-78-.7l-70-.2-4.1-2.2c-2.3-1.2-5.3-3.6-6.7-5.3-2.2-2.6-2.5-3.5-1.6-5.7 1-2.8 7.3-17.8 9.4-22.8.8-1.7 2.3-5.4 3.5-8.4 1.1-3 3-7.5 4.2-10 1.1-2.5 2.1-5 2.2-5.6.1-.5 1.2-3.2 2.4-5.9s2.2-5 2.2-5.1c0-.1.8-2 1.7-4.1.9-2.2 1.7-4.1 1.8-4.4.1-.3.9-2.2 1.8-4.4.9-2.1 1.7-4 1.7-4.2 0-.2.9-2.3 1.9-4.7 1.9-4.1 11.1-26.2 37-89.2 7.2-17.6 13.6-32.7 14-33.6.5-.8 2.1-4.7 3.6-8.5s3.9-9.4 5.2-12.4c1.4-3 2.6-6 2.8-6.5.3-1.3.9-2.9 5.6-13.8 2.1-4.8 3.5-8.7 3.2-8.7-.3 0 .1-.8 1-1.8s1.8-2.7 2-3.8c.2-1 1.3-4.2 2.6-6.9 1.2-2.8 3.6-8.4 5.3-12.5 1.6-4.1 3.6-8.9 4.3-10.5 4.7-10.5 16.5-39.3 16.5-40.3 0-.7.4-1.2.9-1.2s1.1-1.3 1.4-2.9c1.4-6.8 3.2-4.4 11.3 14.7 4.3 10.3 7.9 18.9 8 19.2.2 1.1 4.5 10.7 6.1 13.5.9 1.6 1.6 3.1 1.4 3.3-.3.2 3.9 10.5 8.4 20.7.7 1.6 4.7 11.3 9 21.5 4.2 10.2 8.2 19.8 9 21.5.7 1.6 2.2 5.2 3.3 8 1.1 2.7 2.8 6.8 3.8 9s1.8 4.5 2 5c.1.6 1.1 3.1 2.2 5.5 2.1 4.8 21.6 51.8 25.2 61 1.2 3 2.6 6.2 3 7.1.5.9 3 6.8 5.6 13 2.5 6.3 5.1 12.5 5.7 13.9.6 1.4 1.1 2.7 1.2 3 .1.3.9 2.3 1.9 4.5 1 2.2 2.7 6.2 3.7 8.9 1.1 2.7 2.8 6.8 3.8 9 1.7 3.9 3.2 7.5 3.6 8.6.1.3.7 1.7 1.3 3.2.6 1.6 3.1 7.6 5.5 13.5 2.4 6 4.7 11.7 5.2 12.8.4 1.1.9 2.4 1.1 3 .1.5 1.6 4.4 3.4 8.5 1.7 4.1 3.5 8.4 3.9 9.5.5 1.1 2.3 5.4 3.9 9.5 16.4 40.5 27.6 63.3 34 69.7 7.2 7.2 13.1 9.7 22.2 9.8 5.7 0 8.7-.6 12.2-2.2 5.4-2.6 15.8-12 15.8-14.4 0-.8.3-1.9.7-2.3 3.5-3.5 3.8-21.1.4-31.1-3.4-10.3-16.4-43.1-24.6-62-1.4-3.2-5.9-14-12.4-30-2.3-5.5-4.8-11.4-5.6-13-.7-1.7-3-7.1-5-12-3.5-8.5-4.5-11-7.9-18.8-1.5-3.3-3.8-8.8-4.1-9.7-.3-.9-1.8-4.5-3.5-8.5-1-2.2-3.4-8.1-5.5-13-2-5-4.6-11-5.7-13.4-1-2.4-2.8-6.7-4-9.5-1.1-2.8-2.5-6.2-3.1-7.6-.6-1.4-1.1-2.7-1.1-3-.1-.3-.4-1-.7-1.5-.4-.6-2.1-4.6-3.8-9-1.8-4.4-3.8-9.3-4.5-11-1.6-3.5-5-11.7-9.6-23-4.7-11.6-4.3-10.7-10.5-26.5-6.3-16.1-13-32.9-15-37.5-2.4-5.6-7-17-7.1-17.5-.1-.9-4.3-10.4-5.4-12.2-.5-1-1-2.2-1-2.7 0-.4-1-3-2.2-5.7-1.2-2.7-2.3-5.1-2.3-5.4-.1-.3-.8-2.1-1.7-4-3.7-8.5-10.1-23.6-10.3-24.5-.1-.5-1.1-3-2.2-5.5s-4.4-10.1-7.3-17c-2.9-6.9-6.5-15.5-8.1-19.2-1.6-3.6-2.9-6.9-2.9-7.1 0-.8-5.9-13.9-7-15.7-.6-.8-1.5-2.6-2-3.9-1.8-4-13.3-14.5-19-17.3-7.6-3.6-18.1-5.1-25.5-3.6zm379 4.5c-2.2.9-4.1 2-4.3 2.5-.2.4-.9.8-1.6.8-.7 0-2.2 1.1-3.4 2.5-2.9 3.3-7.4 10.5-6.6 10.5.4 0 .2.6-.4 1.2-.5.7-1.3 2.9-1.8 4.8-1.1 4.9-1.1 5-1.3 5.2-1 1.4-1.2 40.6-1.3 237.4-.1 218.8 0 227.2 1.7 232 3.2 8.3 6.8 12.6 14.5 17 4.2 2.5 12.3 4.4 18.3 4.4 9 0 19.3-7.5 24.1-17.5 2.4-4.9 6.6-16 6.5-17 0-.3.3-2.4.7-4.8.3-2.3.9-5.6 1.1-7.2.3-1.7.6-99.3.7-217 .2-215 .2-215.2-2.9-227.7-.9-4-6.6-14.6-9.8-18.3-1.9-2.2-5.9-5.4-8.8-6.9-4.4-2.4-6.7-3-13.3-3.2-5.7-.2-9.3.2-12.1 1.3zm129 0c-9.5 2-20.1 7.2-25.2 12.2-5.1 5.1-7.2 11.4-7.1 21.7 0 11.2 5.1 19.6 15.8 26.4 8.6 5.4 14.3 6.3 47.5 7.5 7.7.3 15 .7 16.1.9 3.9.8 9.9 1.8 11.9 2 1.1.1 3 .6 4.2 1 1.2.4 3 .8 4 1 10 2 45.1 17.3 50.1 21.9 1.2 1.1 2.2 1.6 2.2 1.1s.4-.5.8.1c.4.5 3.3 2.7 6.5 4.9 3.1 2.1 5.7 4.2 5.7 4.7s.6.9 1.3.9c3.5 0 32.2 31.1 37.3 40.4.6 1.1 2.8 4.8 4.8 8.1 4.4 7.1 12.6 24 12.6 25.8 0 .7.4 1.7.9 2.2 1.8 2 9.1 26.9 10.7 36.5.2 1.4.7 3.6 1 5 .4 1.4.8 3.4.9 4.5.8 5.5 1.8 14.5 2.1 19 .6 6.8.6 38.5.1 41-.3 1.1-.8 4.5-1.2 7.5-1.2 9.6-7.3 33.1-9.4 36.5-.3.5-.6 1.2-.7 1.5-1.5 7.7-19.7 39.6-26.9 47.4-1.4 1.5-2.5 3-2.5 3.3 0 .3-1.3 1.9-3 3.5-1.6 1.5-3 3-3 3.2 0 1.2-17.4 17.2-25 23-6.2 4.8-21.7 14.9-22.2 14.5-.2-.1-2.1.9-4.3 2.2-3.6 2.2-10 5.2-19.5 9.2-5.8 2.4-17.2 5.9-27.5 8.4-7 1.7-16.6 3.1-26 3.8-3.3.3-7.6.7-9.5.9-1.9.3-7.5.7-12.5 1-10.4.7-12 1-18.8 3.2-10.9 3.6-17.3 9-21.3 17.7-2.3 5.1-2.8 7.6-2.8 14.2 0 13.3 5.6 20.1 21.4 26.3 10.7 4.1 27.5 5.5 44.5 3.7 3.3-.4 7.6-.8 9.5-1 1.9-.2 4.9-.6 6.5-.9 1.7-.3 4.8-.8 7-1.1 2.2-.4 4.8-.8 5.7-1.1.9-.3 2.6-.7 3.9-.9 1.2-.2 5.8-1.4 10.3-2.6 4.5-1.2 9.2-2.4 10.6-2.7 1.4-.2 3-.8 3.5-1.2.6-.4 2.3-1 3.9-1.4 4-1 19.7-7.2 28.3-11.2 3.9-1.9 7.6-3.4 8.1-3.4.6 0 1.2-.4 1.4-.8.2-.4 3.9-2.8 8.3-5.1 10.1-5.5 33.4-21.2 35.5-24 .3-.3 2.8-2.4 5.5-4.6 8.9-7 28.3-27 35-36 1.7-2.2 3.6-4.7 4.4-5.5 3.4-3.5 18.4-27.3 23.3-37 11.8-23 22.6-54 25.4-73.3.7-4.6 1.2-7.2 1.4-7.2.1 0 .3-1.4.4-3 .2-1.7.6-5.3 1-8 1.4-11.4 1.7-16.9 2-35.5.3-20.5-.6-29.9-4.5-46.5-1.1-5-2.3-9.7-2.6-10.5-.3-.8-.7-2-.9-2.5-1.4-5.1-6.5-19.9-7.8-22.3-.9-1.8-1.6-3.3-1.5-3.4.4-1.3-8.8-20.3-15.7-32.5-4.7-8.3-19.7-31-21.3-32.3-.4-.3-2.2-2.5-4.1-5-9.7-12.5-40.6-43-43.5-43-.4 0-1.8-1.1-3.1-2.5s-2.6-2.5-2.9-2.5c-.6 0-7.2-4.7-8.5-6-.3-.3-1.4-1-2.5-1.7-1.1-.6-5.8-3.5-10.4-6.4-11.1-6.9-27.5-15-41.4-20.3-9.3-3.6-22.5-8-23.4-7.8-.2.1-2.4-.5-5-1.3-2.7-.7-7.3-1.8-10.3-2.4-3-.6-6.6-1.4-8-1.7-1.4-.2-4.3-.7-6.5-1-6.3-.7-10-1.2-10-1.4 0-.1-7.6-.4-17-.5-12.4-.3-18.9.1-24 1.2z"/></svg>