<?xml version="1.0" standalone="no"?>
<!DOCTYPE svg PUBLIC "-//W3C//DTD SVG 20010904//EN"
 "http://www.w3.org/TR/2001/REC-SVG-20010904/DTD/svg10.dtd">
<svg version="1.0" xmlns="http://www.w3.org/2000/svg"
 width="1024.000000pt" height="1024.000000pt" viewBox="0 0 1024.000000 1024.000000"
 preserveAspectRatio="xMidYMid meet">
<metadata>
Created by potrace 1.14, written by Peter Selinger 2001-2017
</metadata>
<g transform="translate(0.000000,1024.000000) scale(0.100000,-0.100000)"
fill="#000000" stroke="none">
<path d="M2405 7778 c-112 -23 -198 -69 -271 -147 -30 -31 -115 -156 -118
-174 -1 -6 -18 -46 -38 -87 -32 -69 -49 -107 -53 -120 -1 -3 -9 -23 -19 -45
-10 -22 -45 -105 -78 -185 -33 -80 -68 -163 -78 -185 -68 -158 -90 -212 -90
-222 0 -7 -5 -13 -12 -13 -6 0 -9 -3 -6 -6 6 -5 -3 -28 -58 -151 -8 -17 -14
-34 -14 -37 0 -3 -12 -31 -27 -63 -15 -32 -28 -62 -29 -68 -5 -18 -76 -189
-85 -205 -5 -8 -12 -22 -15 -30 -8 -20 -41 -101 -56 -137 -6 -15 -12 -30 -13
-33 -1 -3 -6 -16 -12 -30 -69 -164 -223 -531 -245 -585 -16 -38 -36 -86 -44
-105 -19 -44 -17 -39 -109 -260 -43 -102 -102 -243 -132 -315 -30 -71 -58
-139 -63 -150 -5 -11 -42 -96 -81 -190 -39 -93 -79 -188 -88 -210 -10 -22 -26
-60 -37 -85 -10 -24 -19 -47 -20 -50 0 -3 -6 -16 -12 -30 -183 -420 -224 -517
-225 -527 0 -7 -4 -13 -9 -13 -4 0 -8 -7 -8 -15 0 -8 -9 -34 -19 -57 -31 -71
-44 -102 -47 -115 -1 -6 -7 -27 -13 -45 -45 -141 -35 -284 26 -365 43 -59 145
-113 238 -128 11 -2 36 -7 55 -11 19 -4 539 -8 1155 -9 1226 -2 1151 -5 1243
57 57 39 78 63 106 122 49 102 19 259 -65 347 -72 75 -147 106 -284 115 -45 3
-396 7 -780 7 l-700 2 -41 22 c-23 12 -53 36 -67 53 -22 26 -25 35 -16 57 10
28 73 178 94 228 8 17 23 54 35 84 11 30 30 75 42 100 11 25 21 50 22 56 1 5
12 32 24 59 12 27 22 50 22 51 0 1 8 20 17 41 9 22 17 41 18 44 1 3 9 22 18
44 9 21 17 40 17 42 0 2 9 23 19 47 19 41 111 262 370 892 72 176 136 327 140
336 5 8 21 47 36 85 15 38 39 94 52 124 14 30 26 60 28 65 3 13 9 29 56 138
21 48 35 87 32 87 -3 0 1 8 10 18 9 10 18 27 20 38 2 10 13 42 26 69 12 28 36
84 53 125 16 41 36 89 43 105 47 105 165 393 165 403 0 7 4 12 9 12 5 0 11 13
14 29 14 68 32 44 113 -147 43 -103 79 -189 80 -192 2 -11 45 -107 61 -135 9
-16 16 -31 14 -33 -3 -2 39 -105 84 -207 7 -16 47 -113 90 -215 42 -102 82
-198 90 -215 7 -16 22 -52 33 -80 11 -27 28 -68 38 -90 10 -22 18 -45 20 -50
1 -6 11 -31 22 -55 21 -48 216 -518 252 -610 12 -30 26 -62 30 -71 5 -9 30
-68 56 -130 25 -63 51 -125 57 -139 6 -14 11 -27 12 -30 1 -3 9 -23 19 -45 10
-22 27 -62 37 -89 11 -27 28 -68 38 -90 17 -39 32 -75 36 -86 1 -3 7 -17 13
-32 6 -16 31 -76 55 -135 24 -60 47 -117 52 -128 4 -11 9 -24 11 -30 1 -5 16
-44 34 -85 17 -41 35 -84 39 -95 5 -11 23 -54 39 -95 164 -405 276 -633 340
-697 72 -72 131 -97 222 -98 57 0 87 6 122 22 54 26 158 120 158 144 0 8 3 19
7 23 35 35 38 211 4 311 -34 103 -164 431 -246 620 -14 32 -59 140 -124 300
-23 55 -48 114 -56 130 -7 17 -30 71 -50 120 -35 85 -45 110 -79 188 -15 33
-38 88 -41 97 -3 9 -18 45 -35 85 -10 22 -34 81 -55 130 -20 50 -46 110 -57
134 -10 24 -28 67 -40 95 -11 28 -25 62 -31 76 -6 14 -11 27 -11 30 -1 3 -4
10 -7 15 -4 6 -21 46 -38 90 -18 44 -38 93 -45 110 -16 35 -50 117 -96 230
-47 116 -43 107 -105 265 -63 161 -130 329 -150 375 -24 56 -70 170 -71 175
-1 9 -43 104 -54 122 -5 10 -10 22 -10 27 0 4 -10 30 -22 57 -12 27 -23 51
-23 54 -1 3 -8 21 -17 40 -37 85 -101 236 -103 245 -1 5 -11 30 -22 55 -11 25
-44 101 -73 170 -29 69 -65 155 -81 192 -16 36 -29 69 -29 71 0 8 -59 139 -70
157 -6 8 -15 26 -20 39 -18 40 -133 145 -190 173 -76 36 -181 51 -255 36z"/>
<path d="M6195 7733 c-22 -9 -41 -20 -43 -25 -2 -4 -9 -8 -16 -8 -7 0 -22 -11
-34 -25 -29 -33 -74 -105 -66 -105 4 0 2 -6 -4 -12 -5 -7 -13 -29 -18 -48 -11
-49 -11 -50 -13 -52 -10 -14 -12 -406 -13 -2374 -1 -2188 0 -2272 17 -2320 32
-83 68 -126 145 -170 42 -25 123 -44 183 -44 90 0 193 75 241 175 24 49 66
160 65 170 0 3 3 24 7 48 3 23 9 56 11 72 3 17 6 993 7 2170 2 2150 2 2152
-29 2277 -9 40 -66 146 -98 183 -19 22 -59 54 -88 69 -44 24 -67 30 -133 32
-57 2 -93 -2 -121 -13z"/>
<path d="M7485 7733 c-95 -20 -201 -72 -252 -122 -51 -51 -72 -114 -71 -217 0
-112 51 -196 158 -264 86 -54 143 -63 475 -75 77 -3 150 -7 161 -9 39 -8 99
-18 119 -20 11 -1 30 -6 42 -10 12 -4 30 -8 40 -10 100 -20 451 -173 501 -219
12 -11 22 -16 22 -11 0 5 4 5 8 -1 4 -5 33 -27 65 -49 31 -21 57 -42 57 -47 0
-5 6 -9 13 -9 35 0 322 -311 373 -404 6 -11 28 -48 48 -81 44 -71 126 -240
126 -258 0 -7 4 -17 9 -22 18 -20 91 -269 107 -365 2 -14 7 -36 10 -50 4 -14
8 -34 9 -45 8 -55 18 -145 21 -190 6 -68 6 -385 1 -410 -3 -11 -8 -45 -12 -75
-12 -96 -73 -331 -94 -365 -3 -5 -6 -12 -7 -15 -15 -77 -197 -396 -269 -474
-14 -15 -25 -30 -25 -33 0 -3 -13 -19 -30 -35 -16 -15 -30 -30 -30 -32 0 -12
-174 -172 -250 -230 -62 -48 -217 -149 -222 -145 -2 1 -21 -9 -43 -22 -36 -22
-100 -52 -195 -92 -58 -24 -172 -59 -275 -84 -70 -17 -166 -31 -260 -38 -33
-3 -76 -7 -95 -9 -19 -3 -75 -7 -125 -10 -104 -7 -120 -10 -188 -32 -109 -36
-173 -90 -213 -177 -23 -51 -28 -76 -28 -142 0 -133 56 -201 214 -263 107 -41
275 -55 445 -37 33 4 76 8 95 10 19 2 49 6 65 9 17 3 48 8 70 11 22 4 48 8 57
11 9 3 26 7 39 9 12 2 58 14 103 26 45 12 92 24 106 27 14 2 30 8 35 12 6 4
23 10 39 14 40 10 197 72 283 112 39 19 76 34 81 34 6 0 12 4 14 8 2 4 39 28
83 51 101 55 334 212 355 240 3 3 28 24 55 46 89 70 283 270 350 360 17 22 36
47 44 55 34 35 184 273 233 370 118 230 226 540 254 733 7 46 12 72 14 72 1 0
3 14 4 30 2 17 6 53 10 80 14 114 17 169 20 355 3 205 -6 299 -45 465 -11 50
-23 97 -26 105 -3 8 -7 20 -9 25 -14 51 -65 199 -78 223 -9 18 -16 33 -15 34
4 13 -88 203 -157 325 -47 83 -197 310 -213 323 -4 3 -22 25 -41 50 -97 125
-406 430 -435 430 -4 0 -18 11 -31 25 -13 14 -26 25 -29 25 -6 0 -72 47 -85
60 -3 3 -14 10 -25 17 -11 6 -58 35 -104 64 -111 69 -275 150 -414 203 -93 36
-225 80 -234 78 -2 -1 -24 5 -50 13 -27 7 -73 18 -103 24 -30 6 -66 14 -80 17
-14 2 -43 7 -65 10 -63 7 -100 12 -100 14 0 1 -76 4 -170 5 -124 3 -189 -1
-240 -12z"/>
</g>
</svg>
